<?xml version="1.0" encoding="utf-8"?>
<!-- Generator: Adobe Illustrator 26.0.2, SVG Export Plug-In . SVG Version: 6.00 Build 0)  -->
<!DOCTYPE svg PUBLIC "-//W3C//DTD SVG 1.1//EN" "http://www.w3.org/Graphics/SVG/1.1/DTD/svg11.dtd" [
	<!ENTITY ns_extend "http://ns.adobe.com/Extensibility/1.0/">
	<!ENTITY ns_ai "http://ns.adobe.com/AdobeIllustrator/10.0/">
	<!ENTITY ns_graphs "http://ns.adobe.com/Graphs/1.0/">
	<!ENTITY ns_vars "http://ns.adobe.com/Variables/1.0/">
	<!ENTITY ns_imrep "http://ns.adobe.com/ImageReplacement/1.0/">
	<!ENTITY ns_sfw "http://ns.adobe.com/SaveForWeb/1.0/">
	<!ENTITY ns_custom "http://ns.adobe.com/GenericCustomNamespace/1.0/">
	<!ENTITY ns_adobe_xpath "http://ns.adobe.com/XPath/1.0/">
]>
<svg version="1.1" id="Layer_1" xmlns:x="&ns_extend;" xmlns:i="&ns_ai;" xmlns:graph="&ns_graphs;"
	 xmlns="http://www.w3.org/2000/svg" xmlns:xlink="http://www.w3.org/1999/xlink" x="0px" y="0px" viewBox="0 0 1803.9 2947.6"
	 style="enable-background:new 0 0 1803.9 2947.6;" xml:space="preserve">
<style type="text/css">
	.st0{opacity:0.3;enable-background:new    ;}
	.st1{fill-rule:evenodd;clip-rule:evenodd;fill:#A6CEE3;}
	.st2{fill-rule:evenodd;clip-rule:evenodd;fill:#1F78B4;}
	.st3{fill-rule:evenodd;clip-rule:evenodd;fill:#B2DF8A;}
	.st4{fill-rule:evenodd;clip-rule:evenodd;fill:#33A02C;}
	.st5{fill-rule:evenodd;clip-rule:evenodd;fill:#FB9A99;}
	.st6{fill-rule:evenodd;clip-rule:evenodd;fill:#E31A1C;}
	.st7{fill-rule:evenodd;clip-rule:evenodd;fill:#FDBF6F;}
	.st8{fill-rule:evenodd;clip-rule:evenodd;fill:#FF7F00;}
	.st9{fill-rule:evenodd;clip-rule:evenodd;fill:#CAB2D6;}
	.st10{fill:none;}
</style>
<metadata><?xpacket begin="﻿" id="W5M0MpCehiHzreSzNTczkc9d"?>
<x:xmpmeta xmlns:x="adobe:ns:meta/" x:xmptk="Adobe XMP Core 7.1-c000 79.a8731b9, 2021/09/09-00:37:38        ">
   <rdf:RDF xmlns:rdf="http://www.w3.org/1999/02/22-rdf-syntax-ns#">
      <rdf:Description rdf:about=""
            xmlns:dc="http://purl.org/dc/elements/1.1/"
            xmlns:xmp="http://ns.adobe.com/xap/1.0/"
            xmlns:xmpGImg="http://ns.adobe.com/xap/1.0/g/img/"
            xmlns:xmpMM="http://ns.adobe.com/xap/1.0/mm/"
            xmlns:stRef="http://ns.adobe.com/xap/1.0/sType/ResourceRef#"
            xmlns:stEvt="http://ns.adobe.com/xap/1.0/sType/ResourceEvent#"
            xmlns:illustrator="http://ns.adobe.com/illustrator/1.0/"
            xmlns:pdf="http://ns.adobe.com/pdf/1.3/"
            xmlns:pdfx="http://ns.adobe.com/pdfx/1.3/"
            xmlns:xmpTPg="http://ns.adobe.com/xap/1.0/t/pg/"
            xmlns:stDim="http://ns.adobe.com/xap/1.0/sType/Dimensions#"
            xmlns:xmpG="http://ns.adobe.com/xap/1.0/g/">
         <dc:format>image/svg+xml</dc:format>
         <dc:title>
            <rdf:Alt>
               <rdf:li xml:lang="x-default">Web</rdf:li>
            </rdf:Alt>
         </dc:title>
         <xmp:CreatorTool>Adobe Illustrator 26.0 (Macintosh)</xmp:CreatorTool>
         <xmp:CreateDate>2022-07-11T13:42:20-04:00</xmp:CreateDate>
         <xmp:ModifyDate>2022-07-11T13:42:20-04:00</xmp:ModifyDate>
         <xmp:MetadataDate>2022-07-11T13:42:20-04:00</xmp:MetadataDate>
         <xmp:Thumbnails>
            <rdf:Alt>
               <rdf:li rdf:parseType="Resource">
                  <xmpGImg:width>156</xmpGImg:width>
                  <xmpGImg:height>256</xmpGImg:height>
                  <xmpGImg:format>JPEG</xmpGImg:format>
                  <xmpGImg:image>/9j/4AAQSkZJRgABAgEASABIAAD/7QAsUGhvdG9zaG9wIDMuMAA4QklNA+0AAAAAABAASAAAAAEA&#xA;AQBIAAAAAQAB/+4ADkFkb2JlAGTAAAAAAf/bAIQABgQEBAUEBgUFBgkGBQYJCwgGBggLDAoKCwoK&#xA;DBAMDAwMDAwQDA4PEA8ODBMTFBQTExwbGxscHx8fHx8fHx8fHwEHBwcNDA0YEBAYGhURFRofHx8f&#xA;Hx8fHx8fHx8fHx8fHx8fHx8fHx8fHx8fHx8fHx8fHx8fHx8fHx8fHx8fHx8f/8AAEQgBAACcAwER&#xA;AAIRAQMRAf/EAaIAAAAHAQEBAQEAAAAAAAAAAAQFAwIGAQAHCAkKCwEAAgIDAQEBAQEAAAAAAAAA&#xA;AQACAwQFBgcICQoLEAACAQMDAgQCBgcDBAIGAnMBAgMRBAAFIRIxQVEGE2EicYEUMpGhBxWxQiPB&#xA;UtHhMxZi8CRygvElQzRTkqKyY3PCNUQnk6OzNhdUZHTD0uIIJoMJChgZhJRFRqS0VtNVKBry4/PE&#xA;1OT0ZXWFlaW1xdXl9WZ2hpamtsbW5vY3R1dnd4eXp7fH1+f3OEhYaHiImKi4yNjo+Ck5SVlpeYmZ&#xA;qbnJ2en5KjpKWmp6ipqqusra6voRAAICAQIDBQUEBQYECAMDbQEAAhEDBCESMUEFURNhIgZxgZEy&#xA;obHwFMHR4SNCFVJicvEzJDRDghaSUyWiY7LCB3PSNeJEgxdUkwgJChgZJjZFGidkdFU38qOzwygp&#xA;0+PzhJSktMTU5PRldYWVpbXF1eX1RlZmdoaWprbG1ub2R1dnd4eXp7fH1+f3OEhYaHiImKi4yNjo&#xA;+DlJWWl5iZmpucnZ6fkqOkpaanqKmqq6ytrq+v/aAAwDAQACEQMRAD8A9U4qpXFwIxQbuegyvJkp&#xA;nGNoWG4dHqxqrfayiGQgtkoWEeCCARuD0OZYLQ7FXYq7FXYq7FXYq7FXYq7FXYq7FXYq7FXYq7FX&#xA;YqpXFwIxQbuegyvJkpnGNpezFiSTUnqcxSbb3YFRNrcKgKOaL1By7FOti1zjaI+swfz/AK8u8SPe&#xA;18Bd9Zg/n/Xj4ke9eAu+swfz/rx8SPevAWvrMH8/68mN+TE7O+tQfz/rw0UcQd9ag/n/AF40V4g3&#xA;9Yg/nGNFbDvrEP8AOMaK2G/rEH+/F+/Gku9eH/fi/eMaVv1Yv51+8YKVvmn8w2674qhpr9F2jHI+&#xA;PbJCKaXWc5lRuRq4O/yOAhSiMCHYqls6ssrBjU9a+OYcxRciJsLMgydirsVdirsVdirRzPwD0uJl&#xA;PqdlrU7FXYq7FIWN1xbo8msUuxV2KuxVXthdAFoRsdidu3zyJpSmMfP015/ap8XzyDFdiqDvgOan&#xA;vTMfNzbsaGyhsdirsVdirsVdirRzOwfS4mb6nZc1OxV2KuxSsYgnFuiKDWKXYq7FXYqmsPoRJxVx&#xA;4ncdcrKFT1E/mH34EN1FK9sVQl99pPkcx8/RtxoXKG12KuxV2KuxV2KtHM3T/S4ufm7L2l2KuxVr&#xA;FIa4jFlxlaRQ4tkTbsUuxV2KuxV2Kpv/ALo/2P8ADKmKHvjugp475j5ujbjQuUNrsVdirsVdirsV&#xA;aOZem5Fx8/R2ZLjuxV2KuxVazUHvkZSpsx4+IqYJrlMZUXNlAUuzIcd2KHYq7FXYqnVBx49qUypi&#xA;pXCgoWK8qA/jleQbMoHdL8xHIdirsIFqS1XLfAk1eNFvKiCNi2A27Alo5k6Y7lozjYOzLcZ2KuxV&#xA;omgrgJplGJkaCkSSa5jk27CMREUGsDJup8cbRQdU+ONrQcuW42rL0XZa0uHUYFTrK2KncM6xFl6j&#xA;r8shkJA2ZQFlAPxPxKKfzD3zFNdG8Lcilo5m4MdC+ri5Z2adl7S6uVzxCXNsjkMXVyA08WRzF1cM&#xA;cIBtEspIp2XNTsVdikBSZqn2zHlK3OxY+Eea3ItrsVdirsVbXLcbTl6LstaXL9ofPAqdZWxWyqWi&#xA;dV+0QQK+NMBFhIO7E7W/uX1CAyPRfUVWToKE0O2Y0Ru7OeMCJpNLm7tIbh4mkCsp6EHDGA4t+Tic&#xA;MzGwFP6/Z/79XMvxI97j/l8nc1+kbL/fo+4/0x8WPen8tk7laORJEDoeSnofltkgbaZRMTRX4WLs&#xA;VdirsVU3bsPpymcujmYcdblZlbkOxV2KuxV2KtrluNpyrstaV0YrIoOwJA/HAqcZWxdirDriFodX&#xA;aNRuJhwHsWqP15jkUXaxlcL8lurMG1K4Na/GR922CfNOEegITItrsVT/AE0Usoh7E/eSczcX0h02&#xA;qP7wonJuO7FXYqsdqCg65XOVN+HHe55KeUua7FXYq7FXYq04YoeJo1Nj74CxmDW3NSspZJA/M1pS&#xA;nQZPAbtwoTMuaJzIZrozSRT7j9eAqnGVsXYqx+7twfMBkb+7jQTv8o1/qMqI9TnQl+6r4JHI7O7O&#xA;32mJY/M75U5gFCluBLsVTyG5t4rRaSKWRK8eQqTStMzYEUBbpc0J8RNFQ/TDf76H3/2ZfwOLxIe5&#xA;vpJypFU412BPfJCNIJtq2WeaSnNgo3Y1PTI5JCIbMWMzNJqBQU8MwSbdmBQp2KXYq7FXYq7FVK7/&#xA;AN53+j9YyMuTTn+gpcCR0yp1ruR8Tjar4P7+P/WH68I5pDMMy3JdiqTa6CjSSjq9sU+j1U/5ryub&#xA;l6feh/S/QWNZQ7B2KuxV2Th9Qa8v0H3Ffm1edbVSzBR1JoPpwE0oFptaQNDEVahJNajMLLPiNuzw&#xA;4zEUVfK252KuxV2KuxVa0sSGjOqnwJAwiJPJiZgcyoXM0LQsFdSTSgBHjjLHKuTRnyRMaBQWUGJH&#xA;NwGsCqkH99H/AKw/XiOaQzDMxyXYql2vIp0yZ6fEAoB9i61/VkJ8m/TH1hiWY7tHYq7FV3H3zLhp&#xA;zYLrsmtjRjRbzNdUqQOiTK7glVNaD8MjMEigzxyAkCUVLqbcv3SjjTfkN6/QcpjgHVyJ6o3st/Sc&#xA;/wDKv3H+uS8CLH81Lyd+k5/5V+4/1wfl4r+bl5NrqcgrzQHwpUf1wHTjoWQ1Z6hHQy+rEr0py7dc&#xA;x5xo05eOfELU57yKFwrBiSK7U/rkoYjIWGGTOIGigrue3m+IBw4AArSnXMjHCUdnEzZIz3F2oCKU&#xA;ioRiD0IBy3iDj0qBWVQGBB8D881uoNzS7KVVIP76P/WH68RzSGYZmOS7FUv18gaVN78QP+DGQnyb&#xA;9N9YYjmO7R2KuxVG6gqrJFxAAManb6c2GmNxedzD1FqwiEl2ikVUVJHyGTzSqJYRG6J1ZYYxGiIq&#xA;k1JKgA7fLKdMSbJLKaW5lsHYq7FUXbWPqx8y3Gp2FK7ZRkzcJpycWn4hdphDH6USpWvHvmNKVm3N&#xA;xw4RSA1P+/X/AFR+s5k6f6XC1f1fBSs4mkuY1C8gGBYewO+TyyqJceI3ZBmrbkjnkaSVmbr0+7A1&#xA;EqeKFSD++j/1h+vEc0hmGZjkuxVLPMTAaawNfidQP15DJycjS/WxTMd2bsVXIjOwVQWY9AMUEgCy&#xA;ySJCsKKw3CgEfIYbdHM2SV4VR0AGNlikuqSc7th2QBR+v+ObDTxqLVM7oPL2LsVdiqKjv5kQKAtA&#xA;KDY/1yo4QTbfHUSApd+k5/5V+4/1weBFP5qSiGNxdLz/AG2UGnh0ydcMdmmUjI2U4t7CCCTmhblS&#xA;m5zAnmlIUWYjSJylkkcyMsjBlK7mlRTA1FTxQqW4rcRDxdf14RzSObMMy3JdiqVeY0leyRYwWrIA&#xA;VAr2OV5OTk6YgSs9zHriyntwpkGxFSRuB7HKHMx5oz5IfFuTbSLedC0jKFjcbV+19Hthdfq8kTsO&#xA;aaYHAaJAFT0GFWOSOXkZz1Yk/ec20RQpoKzCrsVdiq+KGWVuMalj7ZGUgOagI+DR2NDM1P8AJXr9&#xA;+Y09V3MxBMIbaCEfu0APj3+/MWeSUubMABVyCXYqluqH96g/yf44lhNA4GCra/71Q/66/rGGPNI5&#xA;svzLcl2KtSIHQqe+AiwqWXFvs0UoqrCh9xmORTEExNhjl3bPbTFD06o3iMi7jFlE42ndjPJNbK7q&#xA;Q3Qk96d8XV54CMqCIxaVG75fVZePXievhTfLMX1BEuTHs2jS7FXYq7FWRWyqtvGAABxB2+WarIfU&#xA;W4clXIJdirsVaZgqliaAbk4qlF5cLPICoICigr3wFrkbQ+LFWtBW7hHjIv6xhjzSObLsy3JdirsV&#xA;WyxLIvE/QfDBKNoISye2UkLKgYKarUVFcxyCFEjHk3kWDsVQ+oc/qknAVNN/l3/DLsFcYtEuSQZs&#xA;ml2KuxVUtwDcRAioLqCPpyM/pKjmyPNS3uxV2KuxVbIoaNlPQgg4qUhwNLsVV7L/AHtt/wDjIn/E&#xA;hhjzCY82W5luS7FXYq7FVK5XkgXxOx7VGQmLQUAQR1yhg7AqE1SThaMO7kKP1/wy/TxuTGZ2SPNi&#xA;1OxV2Kq1orG5ioCaOpNO2+Qyn0n3JHNkOapudirsVdirRFQRiqSTwPC4V6VIrtgaiKU8UIiw/wB7&#xA;YNq/vF/XhjzDKPNlmZbkOxV2KuxVbIpKEDr1HzGAhUHcPG4VlFH/AGhlMyCwKjlaEi1KTndvvULR&#xA;R9HX8c2WCNRDVI7oXLmLsVdiqZ6KN5j/AKv8cxNXyDOCaZhNjsVdirsVdiqVakwNwAP2VAPzqTgL&#xA;XLmhMWKJ04E30FP5xkoc2UebK8ynIdirsVdiqG1D1hByiJqpqeJptTKst1s24qvdKo9QuVYFm5qO&#xA;qtQ1zEGaQcqWGJ6JhOqELLH9hxXMiQHMOvlGix25sLtS8jKGG7Myn6T13zPhmidg45iUJlzF2Ko+&#xA;10syx85G4hgClN/vzGyajhNBmIWjrKy+rc/j586dqdK+5zGy5eOtmUY0ispZLPVj5+nyHP8Al74r&#xA;a/FXYqpzSiKJnPboPE4qTSSsxZizbkmpwNK3FUVpn+98H+tkoc2UebKsynIdirsVdirsVSW+sGil&#xA;LJT02+wvep7Ae2YOXFR2c7FlsbqAmmiohHFkrsR2PYg5DiI2ZmAkrq8dzG0bChI3UHqPbLseTexz&#xA;cLNp+HcckJJo0Z/u5Cvswr+qmZcdUeocQwQ50i5rsyEeNT/TLPzUWPAU3RQiKg6KAB9GYMjZttb5&#xA;LWlRXwwKpPdQqHPMEpWq13qMUWk7uzuXPUmpwNSIg1CaOgb419+v342yEkxhuYZh8DfF/KeuFmDa&#xA;B1KflIIh9lOvzwFjIoLFg7FUXpbBdQgJ/mp94pkoc2UObKcynIdirsVdirsVWTR80K719jxr7VGR&#xA;kLDKJopBcMxkIaMRlduIFPv8c18zvyp2EBtztTRijqw6qa4AaKSLFJkadR0IBHyO4zJdVIUadgYo&#xA;LVP7tP8AW/hiWM0tqa1rv44Gt2KtYq7FWwSDUbHxxVUSCWRS4337ncnvTFnHHIiwFMgqSGFCOoOL&#xA;BrFUVpiF7+ADqGr9C7n9WShzZR5sqzKch2KuxV2KuxV2KpZq9qKC4XrsH/gcxdRDq5Wnn0SvMVyk&#xA;wWWIQo5cUCgEDrUClKZkCQpwJ4pGZXwuksLSBSvEgCprXx7DDE2LYZcQh1UbyGB40WWX0yTyWgLG&#xA;nTE0OZYxwmY2S+7sxCqyRv6kLEgNShBHYjEgcw05MRgd1kcAC85QSDuqKaMR41INMjYHNlDBKQul&#xA;vpo5/dHf+RvtfQehyVNVKZBBoRQjqMCFQ20wpyXjXeh2NPl1wS25tmPFKRoIhaiNU7LX8TlUpW7X&#xA;Di4BTchEqhZDuPsv1YDw9xkhk72vNphPlsUPKvH7Kjj49T9NckJAuFmwGHuRGjknUoem3LoAP2T4&#xA;Zbj+pqhzZNmS3uxV2KuxV2KuxVbJGkiFHFVYUIwEWKKQaNhj07EvQqE4fDxHsffNdI7uxiNlPIsk&#xA;wtyDax0FKFgfnWv6qZkQ+kOv1P1LntDdKAppIgNCehHhXCcfF704M3DsUEqBhJbSEDkfhNdg69D/&#xA;AAyuBo0W7UY+ONhu5ilT0jKKOyDkPcfD+oY5RRTpieDfohnhVt+h8cgJELl00Zb8i4T3CEIGHI7L&#xA;JQFwPZuuXDJs4MsUoyEe9tU41NSWO5J65RKVuwxYRDkuwNzsVditIjSogNQRhts1R9BzIwS9Tg5d&#xA;OI+oJ/mY0uxV2KuxV2KuxV2KpTqdmRN6q0CP9okgAH+3MPPj3ty8OTakB6UnEuFJQbcwDT78o4S5&#xA;HEFSC6eFSoCsp3ow6HxGSjkIYTxCXNp7q4atZGof2QaD7htgM5HqkY4jopZFm2WJABJIHTG1prFV&#xA;GZX5ggHp1HzyyHJ12rEuMEdyqpJUEih7jKy50CSATzbxZuxV2KozSh/pi+wP6suwfU05/pTvM5wX&#xA;Yq7FXYq7FXYq7FWnRHFHUMAa0IrvgIBSCQpSoJecDbKyjjT/AD7ZGQuwyiaopDNE0UrRt1U0zXyj&#xA;Rp2EZWLWYEuxV2KuxV2KuxV2KuxV2Ko3SBW7+SnLtP8AU0aj6U6zOcJ2KuxV2KuxV2KuxV2KqV0s&#xA;hiLRbSoCU7/MZCYNbc2cCL35JDL67n1ZQTy/aI60zAlZ3LnxobBTyLJ2KuxV2KuxV2KuxV2KuxVW&#xA;tblreQyKAWpQV6ZOE+E2wnDiFJz9Zk+p/WPT+Ljy4V7f7W+ZvGeG6cLgHFVojLGt2KuxV2KuxV2K&#xA;uxV2KoHVTG8Ppg8pQQQo3Pv0zHzkEV1b8Fg30SbMNzXYq7FXYq7FXYq7FXYq7FWwpIY/yiv40xpF&#xA;ov6/P9S9Kh68fVr260y7xTw01eEOK07zOcF2KuxV2KuxV2KuxV2KoHU5poFQwkJzJDkAVPhmPnkY&#xA;8nIwREuaTZhuYuEb05UoPE7fdXDSLW4EuxV2KuxV2KuxV2Ko/SFVppAwBBTcHcdRl+nFkuPqDQCZ&#xA;/Vbfhw9McK8uPauZXBGqpxuOV3ark2DsVdirsVdirsVdirsVULu39dFHFWINfiLAf8LleSHEGzHP&#xA;hKCOlT1qpjT5cj+uuU+AfJu8cea06Pck1Mik+Jr/AEyP5eXey/MR7lp0a57Mh+k/0wfl5L+YioXF&#xA;hPboHehUmlQa5CeIxFlshlEjQQ+VtipBA88npoQGO4r7ZKETI0GM5cIson9EXfiv3n+mW/l5NX5i&#xA;Lv0Rd+K/ef6Y/l5L+Yi79EXfiv3n+mP5eS/mIovTrKa3kdpKUIoCDXLcOMxO7VmyCQ2R+ZDjuxV2&#xA;KuxV2KuxV2KuxV2KuxV2KuxV2KqN7F6lrIvelR8xvkMkbiWeOVSCRpaXMihkjYqehptmAMcjyDnH&#xA;JEcyi9OtLiO6V3jKqAak/LLsOOQluGrNkiY7FN8zHDdirsVdirsVf//Z</xmpGImg:image>
               </rdf:li>
            </rdf:Alt>
         </xmp:Thumbnails>
         <xmpMM:RenditionClass>proof:pdf</xmpMM:RenditionClass>
         <xmpMM:OriginalDocumentID>uuid:65E6390686CF11DBA6E2D887CEACB407</xmpMM:OriginalDocumentID>
         <xmpMM:DocumentID>xmp.did:e0df503b-ab0c-466f-b1e5-f4780682ffa8</xmpMM:DocumentID>
         <xmpMM:InstanceID>xmp.iid:e0df503b-ab0c-466f-b1e5-f4780682ffa8</xmpMM:InstanceID>
         <xmpMM:DerivedFrom rdf:parseType="Resource">
            <stRef:instanceID>xmp.iid:44b3447b-e098-402d-8609-d8847a06d5aa</stRef:instanceID>
            <stRef:documentID>xmp.did:44b3447b-e098-402d-8609-d8847a06d5aa</stRef:documentID>
            <stRef:originalDocumentID>uuid:65E6390686CF11DBA6E2D887CEACB407</stRef:originalDocumentID>
            <stRef:renditionClass>proof:pdf</stRef:renditionClass>
         </xmpMM:DerivedFrom>
         <xmpMM:History>
            <rdf:Seq>
               <rdf:li rdf:parseType="Resource">
                  <stEvt:action>saved</stEvt:action>
                  <stEvt:instanceID>xmp.iid:3b85f04c-7ffd-425c-a10e-0307ba9c1c71</stEvt:instanceID>
                  <stEvt:when>2022-07-08T20:48:08-04:00</stEvt:when>
                  <stEvt:softwareAgent>Adobe Illustrator 26.0 (Macintosh)</stEvt:softwareAgent>
                  <stEvt:changed>/</stEvt:changed>
               </rdf:li>
               <rdf:li rdf:parseType="Resource">
                  <stEvt:action>saved</stEvt:action>
                  <stEvt:instanceID>xmp.iid:e0df503b-ab0c-466f-b1e5-f4780682ffa8</stEvt:instanceID>
                  <stEvt:when>2022-07-11T13:42:20-04:00</stEvt:when>
                  <stEvt:softwareAgent>Adobe Illustrator 26.0 (Macintosh)</stEvt:softwareAgent>
                  <stEvt:changed>/</stEvt:changed>
               </rdf:li>
            </rdf:Seq>
         </xmpMM:History>
         <illustrator:StartupProfile>Web</illustrator:StartupProfile>
         <illustrator:CreatorSubTool>Adobe Illustrator</illustrator:CreatorSubTool>
         <pdf:Producer>Adobe PDF library 15.00</pdf:Producer>
         <pdfx:CreatorVersion>21.0.0</pdfx:CreatorVersion>
         <xmpTPg:MaxPageSize rdf:parseType="Resource">
            <stDim:w>1803.940322</stDim:w>
            <stDim:h>2947.618733</stDim:h>
            <stDim:unit>Pixels</stDim:unit>
         </xmpTPg:MaxPageSize>
         <xmpTPg:NPages>1</xmpTPg:NPages>
         <xmpTPg:HasVisibleTransparency>True</xmpTPg:HasVisibleTransparency>
         <xmpTPg:HasVisibleOverprint>False</xmpTPg:HasVisibleOverprint>
         <xmpTPg:PlateNames>
            <rdf:Seq>
               <rdf:li>Cyan</rdf:li>
               <rdf:li>Magenta</rdf:li>
               <rdf:li>Yellow</rdf:li>
               <rdf:li>Black</rdf:li>
            </rdf:Seq>
         </xmpTPg:PlateNames>
         <xmpTPg:SwatchGroups>
            <rdf:Seq>
               <rdf:li rdf:parseType="Resource">
                  <xmpG:groupName>Default Swatch Group</xmpG:groupName>
                  <xmpG:groupType>0</xmpG:groupType>
                  <xmpG:Colorants>
                     <rdf:Seq>
                        <rdf:li rdf:parseType="Resource">
                           <xmpG:swatchName>White</xmpG:swatchName>
                           <xmpG:mode>RGB</xmpG:mode>
                           <xmpG:type>PROCESS</xmpG:type>
                           <xmpG:red>255</xmpG:red>
                           <xmpG:green>255</xmpG:green>
                           <xmpG:blue>255</xmpG:blue>
                        </rdf:li>
                        <rdf:li rdf:parseType="Resource">
                           <xmpG:swatchName>Black</xmpG:swatchName>
                           <xmpG:mode>RGB</xmpG:mode>
                           <xmpG:type>PROCESS</xmpG:type>
                           <xmpG:red>0</xmpG:red>
                           <xmpG:green>0</xmpG:green>
                           <xmpG:blue>0</xmpG:blue>
                        </rdf:li>
                        <rdf:li rdf:parseType="Resource">
                           <xmpG:swatchName>RGB Red</xmpG:swatchName>
                           <xmpG:mode>RGB</xmpG:mode>
                           <xmpG:type>PROCESS</xmpG:type>
                           <xmpG:red>255</xmpG:red>
                           <xmpG:green>0</xmpG:green>
                           <xmpG:blue>0</xmpG:blue>
                        </rdf:li>
                        <rdf:li rdf:parseType="Resource">
                           <xmpG:swatchName>RGB Yellow</xmpG:swatchName>
                           <xmpG:mode>RGB</xmpG:mode>
                           <xmpG:type>PROCESS</xmpG:type>
                           <xmpG:red>255</xmpG:red>
                           <xmpG:green>255</xmpG:green>
                           <xmpG:blue>0</xmpG:blue>
                        </rdf:li>
                        <rdf:li rdf:parseType="Resource">
                           <xmpG:swatchName>RGB Green</xmpG:swatchName>
                           <xmpG:mode>RGB</xmpG:mode>
                           <xmpG:type>PROCESS</xmpG:type>
                           <xmpG:red>0</xmpG:red>
                           <xmpG:green>255</xmpG:green>
                           <xmpG:blue>0</xmpG:blue>
                        </rdf:li>
                        <rdf:li rdf:parseType="Resource">
                           <xmpG:swatchName>RGB Cyan</xmpG:swatchName>
                           <xmpG:mode>RGB</xmpG:mode>
                           <xmpG:type>PROCESS</xmpG:type>
                           <xmpG:red>0</xmpG:red>
                           <xmpG:green>255</xmpG:green>
                           <xmpG:blue>255</xmpG:blue>
                        </rdf:li>
                        <rdf:li rdf:parseType="Resource">
                           <xmpG:swatchName>RGB Blue</xmpG:swatchName>
                           <xmpG:mode>RGB</xmpG:mode>
                           <xmpG:type>PROCESS</xmpG:type>
                           <xmpG:red>0</xmpG:red>
                           <xmpG:green>0</xmpG:green>
                           <xmpG:blue>255</xmpG:blue>
                        </rdf:li>
                        <rdf:li rdf:parseType="Resource">
                           <xmpG:swatchName>RGB Magenta</xmpG:swatchName>
                           <xmpG:mode>RGB</xmpG:mode>
                           <xmpG:type>PROCESS</xmpG:type>
                           <xmpG:red>255</xmpG:red>
                           <xmpG:green>0</xmpG:green>
                           <xmpG:blue>255</xmpG:blue>
                        </rdf:li>
                        <rdf:li rdf:parseType="Resource">
                           <xmpG:swatchName>R=193 G=39 B=45</xmpG:swatchName>
                           <xmpG:mode>RGB</xmpG:mode>
                           <xmpG:type>PROCESS</xmpG:type>
                           <xmpG:red>193</xmpG:red>
                           <xmpG:green>39</xmpG:green>
                           <xmpG:blue>45</xmpG:blue>
                        </rdf:li>
                        <rdf:li rdf:parseType="Resource">
                           <xmpG:swatchName>R=237 G=28 B=36</xmpG:swatchName>
                           <xmpG:mode>RGB</xmpG:mode>
                           <xmpG:type>PROCESS</xmpG:type>
                           <xmpG:red>237</xmpG:red>
                           <xmpG:green>28</xmpG:green>
                           <xmpG:blue>36</xmpG:blue>
                        </rdf:li>
                        <rdf:li rdf:parseType="Resource">
                           <xmpG:swatchName>R=241 G=90 B=36</xmpG:swatchName>
                           <xmpG:mode>RGB</xmpG:mode>
                           <xmpG:type>PROCESS</xmpG:type>
                           <xmpG:red>241</xmpG:red>
                           <xmpG:green>90</xmpG:green>
                           <xmpG:blue>36</xmpG:blue>
                        </rdf:li>
                        <rdf:li rdf:parseType="Resource">
                           <xmpG:swatchName>R=247 G=147 B=30</xmpG:swatchName>
                           <xmpG:mode>RGB</xmpG:mode>
                           <xmpG:type>PROCESS</xmpG:type>
                           <xmpG:red>247</xmpG:red>
                           <xmpG:green>147</xmpG:green>
                           <xmpG:blue>30</xmpG:blue>
                        </rdf:li>
                        <rdf:li rdf:parseType="Resource">
                           <xmpG:swatchName>R=251 G=176 B=59</xmpG:swatchName>
                           <xmpG:mode>RGB</xmpG:mode>
                           <xmpG:type>PROCESS</xmpG:type>
                           <xmpG:red>251</xmpG:red>
                           <xmpG:green>176</xmpG:green>
                           <xmpG:blue>59</xmpG:blue>
                        </rdf:li>
                        <rdf:li rdf:parseType="Resource">
                           <xmpG:swatchName>R=252 G=238 B=33</xmpG:swatchName>
                           <xmpG:mode>RGB</xmpG:mode>
                           <xmpG:type>PROCESS</xmpG:type>
                           <xmpG:red>252</xmpG:red>
                           <xmpG:green>238</xmpG:green>
                           <xmpG:blue>33</xmpG:blue>
                        </rdf:li>
                        <rdf:li rdf:parseType="Resource">
                           <xmpG:swatchName>R=217 G=224 B=33</xmpG:swatchName>
                           <xmpG:mode>RGB</xmpG:mode>
                           <xmpG:type>PROCESS</xmpG:type>
                           <xmpG:red>217</xmpG:red>
                           <xmpG:green>224</xmpG:green>
                           <xmpG:blue>33</xmpG:blue>
                        </rdf:li>
                        <rdf:li rdf:parseType="Resource">
                           <xmpG:swatchName>R=140 G=198 B=63</xmpG:swatchName>
                           <xmpG:mode>RGB</xmpG:mode>
                           <xmpG:type>PROCESS</xmpG:type>
                           <xmpG:red>140</xmpG:red>
                           <xmpG:green>198</xmpG:green>
                           <xmpG:blue>63</xmpG:blue>
                        </rdf:li>
                        <rdf:li rdf:parseType="Resource">
                           <xmpG:swatchName>R=57 G=181 B=74</xmpG:swatchName>
                           <xmpG:mode>RGB</xmpG:mode>
                           <xmpG:type>PROCESS</xmpG:type>
                           <xmpG:red>57</xmpG:red>
                           <xmpG:green>181</xmpG:green>
                           <xmpG:blue>74</xmpG:blue>
                        </rdf:li>
                        <rdf:li rdf:parseType="Resource">
                           <xmpG:swatchName>R=0 G=146 B=69</xmpG:swatchName>
                           <xmpG:mode>RGB</xmpG:mode>
                           <xmpG:type>PROCESS</xmpG:type>
                           <xmpG:red>0</xmpG:red>
                           <xmpG:green>146</xmpG:green>
                           <xmpG:blue>69</xmpG:blue>
                        </rdf:li>
                        <rdf:li rdf:parseType="Resource">
                           <xmpG:swatchName>R=0 G=104 B=55</xmpG:swatchName>
                           <xmpG:mode>RGB</xmpG:mode>
                           <xmpG:type>PROCESS</xmpG:type>
                           <xmpG:red>0</xmpG:red>
                           <xmpG:green>104</xmpG:green>
                           <xmpG:blue>55</xmpG:blue>
                        </rdf:li>
                        <rdf:li rdf:parseType="Resource">
                           <xmpG:swatchName>R=34 G=181 B=115</xmpG:swatchName>
                           <xmpG:mode>RGB</xmpG:mode>
                           <xmpG:type>PROCESS</xmpG:type>
                           <xmpG:red>34</xmpG:red>
                           <xmpG:green>181</xmpG:green>
                           <xmpG:blue>115</xmpG:blue>
                        </rdf:li>
                        <rdf:li rdf:parseType="Resource">
                           <xmpG:swatchName>R=0 G=169 B=157</xmpG:swatchName>
                           <xmpG:mode>RGB</xmpG:mode>
                           <xmpG:type>PROCESS</xmpG:type>
                           <xmpG:red>0</xmpG:red>
                           <xmpG:green>169</xmpG:green>
                           <xmpG:blue>157</xmpG:blue>
                        </rdf:li>
                        <rdf:li rdf:parseType="Resource">
                           <xmpG:swatchName>R=41 G=171 B=226</xmpG:swatchName>
                           <xmpG:mode>RGB</xmpG:mode>
                           <xmpG:type>PROCESS</xmpG:type>
                           <xmpG:red>41</xmpG:red>
                           <xmpG:green>171</xmpG:green>
                           <xmpG:blue>226</xmpG:blue>
                        </rdf:li>
                        <rdf:li rdf:parseType="Resource">
                           <xmpG:swatchName>R=0 G=113 B=188</xmpG:swatchName>
                           <xmpG:mode>RGB</xmpG:mode>
                           <xmpG:type>PROCESS</xmpG:type>
                           <xmpG:red>0</xmpG:red>
                           <xmpG:green>113</xmpG:green>
                           <xmpG:blue>188</xmpG:blue>
                        </rdf:li>
                        <rdf:li rdf:parseType="Resource">
                           <xmpG:swatchName>R=46 G=49 B=146</xmpG:swatchName>
                           <xmpG:mode>RGB</xmpG:mode>
                           <xmpG:type>PROCESS</xmpG:type>
                           <xmpG:red>46</xmpG:red>
                           <xmpG:green>49</xmpG:green>
                           <xmpG:blue>146</xmpG:blue>
                        </rdf:li>
                        <rdf:li rdf:parseType="Resource">
                           <xmpG:swatchName>R=27 G=20 B=100</xmpG:swatchName>
                           <xmpG:mode>RGB</xmpG:mode>
                           <xmpG:type>PROCESS</xmpG:type>
                           <xmpG:red>27</xmpG:red>
                           <xmpG:green>20</xmpG:green>
                           <xmpG:blue>100</xmpG:blue>
                        </rdf:li>
                        <rdf:li rdf:parseType="Resource">
                           <xmpG:swatchName>R=102 G=45 B=145</xmpG:swatchName>
                           <xmpG:mode>RGB</xmpG:mode>
                           <xmpG:type>PROCESS</xmpG:type>
                           <xmpG:red>102</xmpG:red>
                           <xmpG:green>45</xmpG:green>
                           <xmpG:blue>145</xmpG:blue>
                        </rdf:li>
                        <rdf:li rdf:parseType="Resource">
                           <xmpG:swatchName>R=147 G=39 B=143</xmpG:swatchName>
                           <xmpG:mode>RGB</xmpG:mode>
                           <xmpG:type>PROCESS</xmpG:type>
                           <xmpG:red>147</xmpG:red>
                           <xmpG:green>39</xmpG:green>
                           <xmpG:blue>143</xmpG:blue>
                        </rdf:li>
                        <rdf:li rdf:parseType="Resource">
                           <xmpG:swatchName>R=158 G=0 B=93</xmpG:swatchName>
                           <xmpG:mode>RGB</xmpG:mode>
                           <xmpG:type>PROCESS</xmpG:type>
                           <xmpG:red>158</xmpG:red>
                           <xmpG:green>0</xmpG:green>
                           <xmpG:blue>93</xmpG:blue>
                        </rdf:li>
                        <rdf:li rdf:parseType="Resource">
                           <xmpG:swatchName>R=212 G=20 B=90</xmpG:swatchName>
                           <xmpG:mode>RGB</xmpG:mode>
                           <xmpG:type>PROCESS</xmpG:type>
                           <xmpG:red>212</xmpG:red>
                           <xmpG:green>20</xmpG:green>
                           <xmpG:blue>90</xmpG:blue>
                        </rdf:li>
                        <rdf:li rdf:parseType="Resource">
                           <xmpG:swatchName>R=237 G=30 B=121</xmpG:swatchName>
                           <xmpG:mode>RGB</xmpG:mode>
                           <xmpG:type>PROCESS</xmpG:type>
                           <xmpG:red>237</xmpG:red>
                           <xmpG:green>30</xmpG:green>
                           <xmpG:blue>121</xmpG:blue>
                        </rdf:li>
                        <rdf:li rdf:parseType="Resource">
                           <xmpG:swatchName>R=199 G=178 B=153</xmpG:swatchName>
                           <xmpG:mode>RGB</xmpG:mode>
                           <xmpG:type>PROCESS</xmpG:type>
                           <xmpG:red>199</xmpG:red>
                           <xmpG:green>178</xmpG:green>
                           <xmpG:blue>153</xmpG:blue>
                        </rdf:li>
                        <rdf:li rdf:parseType="Resource">
                           <xmpG:swatchName>R=153 G=134 B=117</xmpG:swatchName>
                           <xmpG:mode>RGB</xmpG:mode>
                           <xmpG:type>PROCESS</xmpG:type>
                           <xmpG:red>153</xmpG:red>
                           <xmpG:green>134</xmpG:green>
                           <xmpG:blue>117</xmpG:blue>
                        </rdf:li>
                        <rdf:li rdf:parseType="Resource">
                           <xmpG:swatchName>R=115 G=99 B=87</xmpG:swatchName>
                           <xmpG:mode>RGB</xmpG:mode>
                           <xmpG:type>PROCESS</xmpG:type>
                           <xmpG:red>115</xmpG:red>
                           <xmpG:green>99</xmpG:green>
                           <xmpG:blue>87</xmpG:blue>
                        </rdf:li>
                        <rdf:li rdf:parseType="Resource">
                           <xmpG:swatchName>R=83 G=71 B=65</xmpG:swatchName>
                           <xmpG:mode>RGB</xmpG:mode>
                           <xmpG:type>PROCESS</xmpG:type>
                           <xmpG:red>83</xmpG:red>
                           <xmpG:green>71</xmpG:green>
                           <xmpG:blue>65</xmpG:blue>
                        </rdf:li>
                        <rdf:li rdf:parseType="Resource">
                           <xmpG:swatchName>R=198 G=156 B=109</xmpG:swatchName>
                           <xmpG:mode>RGB</xmpG:mode>
                           <xmpG:type>PROCESS</xmpG:type>
                           <xmpG:red>198</xmpG:red>
                           <xmpG:green>156</xmpG:green>
                           <xmpG:blue>109</xmpG:blue>
                        </rdf:li>
                        <rdf:li rdf:parseType="Resource">
                           <xmpG:swatchName>R=166 G=124 B=82</xmpG:swatchName>
                           <xmpG:mode>RGB</xmpG:mode>
                           <xmpG:type>PROCESS</xmpG:type>
                           <xmpG:red>166</xmpG:red>
                           <xmpG:green>124</xmpG:green>
                           <xmpG:blue>82</xmpG:blue>
                        </rdf:li>
                        <rdf:li rdf:parseType="Resource">
                           <xmpG:swatchName>R=140 G=98 B=57</xmpG:swatchName>
                           <xmpG:mode>RGB</xmpG:mode>
                           <xmpG:type>PROCESS</xmpG:type>
                           <xmpG:red>140</xmpG:red>
                           <xmpG:green>98</xmpG:green>
                           <xmpG:blue>57</xmpG:blue>
                        </rdf:li>
                        <rdf:li rdf:parseType="Resource">
                           <xmpG:swatchName>R=117 G=76 B=36</xmpG:swatchName>
                           <xmpG:mode>RGB</xmpG:mode>
                           <xmpG:type>PROCESS</xmpG:type>
                           <xmpG:red>117</xmpG:red>
                           <xmpG:green>76</xmpG:green>
                           <xmpG:blue>36</xmpG:blue>
                        </rdf:li>
                        <rdf:li rdf:parseType="Resource">
                           <xmpG:swatchName>R=96 G=56 B=19</xmpG:swatchName>
                           <xmpG:mode>RGB</xmpG:mode>
                           <xmpG:type>PROCESS</xmpG:type>
                           <xmpG:red>96</xmpG:red>
                           <xmpG:green>56</xmpG:green>
                           <xmpG:blue>19</xmpG:blue>
                        </rdf:li>
                        <rdf:li rdf:parseType="Resource">
                           <xmpG:swatchName>R=66 G=33 B=11</xmpG:swatchName>
                           <xmpG:mode>RGB</xmpG:mode>
                           <xmpG:type>PROCESS</xmpG:type>
                           <xmpG:red>66</xmpG:red>
                           <xmpG:green>33</xmpG:green>
                           <xmpG:blue>11</xmpG:blue>
                        </rdf:li>
                     </rdf:Seq>
                  </xmpG:Colorants>
               </rdf:li>
               <rdf:li rdf:parseType="Resource">
                  <xmpG:groupName>Grays</xmpG:groupName>
                  <xmpG:groupType>1</xmpG:groupType>
                  <xmpG:Colorants>
                     <rdf:Seq>
                        <rdf:li rdf:parseType="Resource">
                           <xmpG:swatchName>R=0 G=0 B=0</xmpG:swatchName>
                           <xmpG:mode>RGB</xmpG:mode>
                           <xmpG:type>PROCESS</xmpG:type>
                           <xmpG:red>0</xmpG:red>
                           <xmpG:green>0</xmpG:green>
                           <xmpG:blue>0</xmpG:blue>
                        </rdf:li>
                        <rdf:li rdf:parseType="Resource">
                           <xmpG:swatchName>R=26 G=26 B=26</xmpG:swatchName>
                           <xmpG:mode>RGB</xmpG:mode>
                           <xmpG:type>PROCESS</xmpG:type>
                           <xmpG:red>26</xmpG:red>
                           <xmpG:green>26</xmpG:green>
                           <xmpG:blue>26</xmpG:blue>
                        </rdf:li>
                        <rdf:li rdf:parseType="Resource">
                           <xmpG:swatchName>R=51 G=51 B=51</xmpG:swatchName>
                           <xmpG:mode>RGB</xmpG:mode>
                           <xmpG:type>PROCESS</xmpG:type>
                           <xmpG:red>51</xmpG:red>
                           <xmpG:green>51</xmpG:green>
                           <xmpG:blue>51</xmpG:blue>
                        </rdf:li>
                        <rdf:li rdf:parseType="Resource">
                           <xmpG:swatchName>R=77 G=77 B=77</xmpG:swatchName>
                           <xmpG:mode>RGB</xmpG:mode>
                           <xmpG:type>PROCESS</xmpG:type>
                           <xmpG:red>77</xmpG:red>
                           <xmpG:green>77</xmpG:green>
                           <xmpG:blue>77</xmpG:blue>
                        </rdf:li>
                        <rdf:li rdf:parseType="Resource">
                           <xmpG:swatchName>R=102 G=102 B=102</xmpG:swatchName>
                           <xmpG:mode>RGB</xmpG:mode>
                           <xmpG:type>PROCESS</xmpG:type>
                           <xmpG:red>102</xmpG:red>
                           <xmpG:green>102</xmpG:green>
                           <xmpG:blue>102</xmpG:blue>
                        </rdf:li>
                        <rdf:li rdf:parseType="Resource">
                           <xmpG:swatchName>R=128 G=128 B=128</xmpG:swatchName>
                           <xmpG:mode>RGB</xmpG:mode>
                           <xmpG:type>PROCESS</xmpG:type>
                           <xmpG:red>128</xmpG:red>
                           <xmpG:green>128</xmpG:green>
                           <xmpG:blue>128</xmpG:blue>
                        </rdf:li>
                        <rdf:li rdf:parseType="Resource">
                           <xmpG:swatchName>R=153 G=153 B=153</xmpG:swatchName>
                           <xmpG:mode>RGB</xmpG:mode>
                           <xmpG:type>PROCESS</xmpG:type>
                           <xmpG:red>153</xmpG:red>
                           <xmpG:green>153</xmpG:green>
                           <xmpG:blue>153</xmpG:blue>
                        </rdf:li>
                        <rdf:li rdf:parseType="Resource">
                           <xmpG:swatchName>R=179 G=179 B=179</xmpG:swatchName>
                           <xmpG:mode>RGB</xmpG:mode>
                           <xmpG:type>PROCESS</xmpG:type>
                           <xmpG:red>179</xmpG:red>
                           <xmpG:green>179</xmpG:green>
                           <xmpG:blue>179</xmpG:blue>
                        </rdf:li>
                        <rdf:li rdf:parseType="Resource">
                           <xmpG:swatchName>R=204 G=204 B=204</xmpG:swatchName>
                           <xmpG:mode>RGB</xmpG:mode>
                           <xmpG:type>PROCESS</xmpG:type>
                           <xmpG:red>204</xmpG:red>
                           <xmpG:green>204</xmpG:green>
                           <xmpG:blue>204</xmpG:blue>
                        </rdf:li>
                        <rdf:li rdf:parseType="Resource">
                           <xmpG:swatchName>R=230 G=230 B=230</xmpG:swatchName>
                           <xmpG:mode>RGB</xmpG:mode>
                           <xmpG:type>PROCESS</xmpG:type>
                           <xmpG:red>230</xmpG:red>
                           <xmpG:green>230</xmpG:green>
                           <xmpG:blue>230</xmpG:blue>
                        </rdf:li>
                        <rdf:li rdf:parseType="Resource">
                           <xmpG:swatchName>R=242 G=242 B=242</xmpG:swatchName>
                           <xmpG:mode>RGB</xmpG:mode>
                           <xmpG:type>PROCESS</xmpG:type>
                           <xmpG:red>242</xmpG:red>
                           <xmpG:green>242</xmpG:green>
                           <xmpG:blue>242</xmpG:blue>
                        </rdf:li>
                     </rdf:Seq>
                  </xmpG:Colorants>
               </rdf:li>
               <rdf:li rdf:parseType="Resource">
                  <xmpG:groupName>Web Color Group</xmpG:groupName>
                  <xmpG:groupType>1</xmpG:groupType>
                  <xmpG:Colorants>
                     <rdf:Seq>
                        <rdf:li rdf:parseType="Resource">
                           <xmpG:swatchName>R=63 G=169 B=245</xmpG:swatchName>
                           <xmpG:mode>RGB</xmpG:mode>
                           <xmpG:type>PROCESS</xmpG:type>
                           <xmpG:red>63</xmpG:red>
                           <xmpG:green>169</xmpG:green>
                           <xmpG:blue>245</xmpG:blue>
                        </rdf:li>
                        <rdf:li rdf:parseType="Resource">
                           <xmpG:swatchName>R=122 G=201 B=67</xmpG:swatchName>
                           <xmpG:mode>RGB</xmpG:mode>
                           <xmpG:type>PROCESS</xmpG:type>
                           <xmpG:red>122</xmpG:red>
                           <xmpG:green>201</xmpG:green>
                           <xmpG:blue>67</xmpG:blue>
                        </rdf:li>
                        <rdf:li rdf:parseType="Resource">
                           <xmpG:swatchName>R=255 G=147 B=30</xmpG:swatchName>
                           <xmpG:mode>RGB</xmpG:mode>
                           <xmpG:type>PROCESS</xmpG:type>
                           <xmpG:red>255</xmpG:red>
                           <xmpG:green>147</xmpG:green>
                           <xmpG:blue>30</xmpG:blue>
                        </rdf:li>
                        <rdf:li rdf:parseType="Resource">
                           <xmpG:swatchName>R=255 G=29 B=37</xmpG:swatchName>
                           <xmpG:mode>RGB</xmpG:mode>
                           <xmpG:type>PROCESS</xmpG:type>
                           <xmpG:red>255</xmpG:red>
                           <xmpG:green>29</xmpG:green>
                           <xmpG:blue>37</xmpG:blue>
                        </rdf:li>
                        <rdf:li rdf:parseType="Resource">
                           <xmpG:swatchName>R=255 G=123 B=172</xmpG:swatchName>
                           <xmpG:mode>RGB</xmpG:mode>
                           <xmpG:type>PROCESS</xmpG:type>
                           <xmpG:red>255</xmpG:red>
                           <xmpG:green>123</xmpG:green>
                           <xmpG:blue>172</xmpG:blue>
                        </rdf:li>
                        <rdf:li rdf:parseType="Resource">
                           <xmpG:swatchName>R=189 G=204 B=212</xmpG:swatchName>
                           <xmpG:mode>RGB</xmpG:mode>
                           <xmpG:type>PROCESS</xmpG:type>
                           <xmpG:red>189</xmpG:red>
                           <xmpG:green>204</xmpG:green>
                           <xmpG:blue>212</xmpG:blue>
                        </rdf:li>
                     </rdf:Seq>
                  </xmpG:Colorants>
               </rdf:li>
            </rdf:Seq>
         </xmpTPg:SwatchGroups>
      </rdf:Description>
   </rdf:RDF>
</x:xmpmeta>
                                                                                                    
                                                                                                    
                                                                                                    
                                                                                                    
                                                                                                    
                                                                                                    
                                                                                                    
                                                                                                    
                                                                                                    
                                                                                                    
                                                                                                    
                                                                                                    
                                                                                                    
                                                                                                    
                                                                                                    
                                                                                                    
                                                                                                    
                                                                                                    
                                                                                                    
                                                                                                    
                           
<?xpacket end="w"?>
	</metadata>
<g class="st0">
	<g>
		<g>
			<polygon class="st1" points="501.7,1009.6 502.4,999.5 498,996.1 493.7,990.1 496.6,986.3 500.8,983 505.1,981.1 506,970.2 
				507.8,952.2 509.8,931.6 511.7,911.9 513.6,892.6 515.3,875 515.5,874.1 515.6,873.2 515,836.3 510.9,836.2 509.3,836.2 
				500.6,835.9 495.8,835.7 477.2,836 458.8,836.3 439.9,836.7 421.9,837 407.3,837.3 403.5,838.3 389.2,838.4 370.8,838.5 
				352.2,838.9 333.8,839.3 324.3,839.6 315.4,839.5 295.3,837.5 266.5,834.6 263.6,833.1 266.9,831 273.4,826.9 276.6,823.8 
				280.9,819.6 282.3,818.4 283.2,816.9 284.7,814.6 287.1,810.6 295.9,796.5 299,791.3 310.6,777.9 320.1,768.3 324.3,762.4 
				326.2,759 328.1,754.5 329.5,751.2 331,746.6 332.5,740.7 334.7,732.5 335.8,728.7 338.2,723.4 340.7,718.7 342.8,715.4 
				345.4,711.4 349.3,707 351.4,704.9 365.1,691 393.1,664.4 398.8,658.9 399.3,659.9 401.7,657.6 404.6,654 406.1,653 407.9,651.8 
				411,650 414.3,648.2 418.8,646.9 421.3,646.1 423.7,645.7 427.7,644.9 436.9,644.7 445.9,644.5 450.3,644.5 455.8,644.1 
				457.3,644 464.1,644.3 471.7,644.7 476.6,645.6 482.1,646.9 488.6,648.8 494.7,650.8 500.3,653.5 504.3,656 508.7,659.3 
				512.8,662.6 515.4,665.3 517.1,667.8 520.7,673.3 523.8,679.6 526.4,684.3 528.9,688.5 533.3,693 537.2,696.5 540.5,699.1 
				544.2,701.1 550.9,704.2 557.1,705.6 563.8,707.1 567.8,707.8 568.7,708 574.9,709.5 583.9,711.1 595.8,713.3 599.5,713.7 
				605.3,713.8 609.5,713.3 610.8,713.2 613.4,712.7 615,712.2 617.9,711.1 621.2,709.8 626.2,707.5 631.1,705.6 636.5,703.4 
				637.6,703 641.5,701.9 645.6,700.8 650.5,700.1 655.5,699.9 659,700.2 664.4,700.9 669.3,702 675.1,704.3 679.3,706 683.8,707.6 
				687.6,708.8 690.7,709.5 697.7,710.6 706.4,711.2 708.1,711.1 713,710.8 718.6,710.4 725.7,710.2 733.4,709.9 735.1,709.7 
				737.5,709.7 741.5,708.2 741.4,707.5 741.1,700.1 740.5,694.9 739,689.6 737.2,685.8 735.1,684 722.1,659.3 721.5,659.7 
				721.8,657.7 721,654.3 720.6,649.9 716.1,597.3 714.6,579.6 713.6,568.5 712.8,560 711.9,550.7 711.3,541.1 709.7,522.4 
				708.8,511.9 708.4,507.6 707.6,497.6 707.5,496.5 705.7,475.4 704.1,454.5 702.4,432.5 701,413.2 699.6,393.5 698.4,377.5 
				698.2,374.4 696.9,357 696.9,356.1 695.7,340.1 694.5,325 694.5,323.5 693.9,310.4 693.9,308.1 693,293.7 692.1,278.8 
				691.7,275.3 691.2,272 690.6,265.5 689.4,249.1 689.2,245.8 705.5,245.9 705.4,225 687.5,224.9 686.4,210.7 686.8,210.1 
				688.6,210.7 743.1,210.9 750.3,210.9 766.7,211.1 806.3,211.5 850.2,211.9 890.5,212.2 892.8,212.3 904.5,212.4 915.1,212.4 
				918.5,212.5 925.5,212.6 930.5,212.7 932.4,212.7 946.4,213.1 949,213.1 960.4,213.4 965.6,213.5 974.3,213.7 982.4,213.9 
				999.8,214.4 1009.8,214.6 1017.1,214.8 1024.8,215 1037.1,215.3 1039.4,215.3 1053.7,215.6 1054.1,215.6 1071.6,216 
				1089.5,216.4 1091.7,216.5 1105.6,216.8 1118.9,217 1121.9,217.1 1137.1,217.4 1136.4,268.5 1118.1,268.2 1070.8,267.2 
				1070.8,267.9 1070.7,276.6 1080.9,276.5 1119,277.5 1145.9,278.8 1145.9,287.7 1146,300 1145.3,339.8 1145,349.3 1144.2,386 
				1137.9,385.9 1134.9,386.1 1129,386.8 1125.1,387.7 1124.6,387.8 1121.8,388.5 1119.7,388.9 1116.5,389.8 1110.8,392 
				1108.2,392.9 1105.4,393.9 1104.7,394.2 1105.6,397.8 1106.3,401.4 1106.7,405 1107,410.2 1107.2,415.9 1106.7,438.2 
				1113.5,438.3 1119,438.4 1121.4,438.5 1124.8,438.6 1140.7,439 1143.1,439 1151.8,439.2 1160.3,439.4 1171.9,439.6 1192.3,440 
				1197.6,440.1 1201.3,441.2 1203.5,442.1 1205.6,443.3 1206.3,443.8 1210.4,447 1212.5,448.5 1214.9,449.7 1217.4,450.5 
				1219.4,450.9 1223.5,451.3 1227.6,451.8 1230.6,452.8 1232.8,453.8 1233.5,454.2 1235.1,455.1 1237.6,456.9 1239.3,458.5 
				1240.8,460.3 1243.1,463.7 1251.6,470.7 1241.7,482.9 1236.2,489.6 1234.9,491.2 1234.5,491.7 1220.1,509.4 1216.4,513.8 
				1204.9,528.1 1193.6,541.7 1183.9,553.9 1173.1,567.5 1157.3,586.8 1146,600.4 1141.5,606.6 1138.9,609.9 1137.3,611.8 
				1122.5,630.3 1103.5,653.9 1096.2,662.9 1095.4,664 1092.5,667.7 1086.9,674.7 1084.4,677.8 1068.5,697.3 1055.4,713.7 
				1050.3,720.2 1039.3,733.8 1031,744.2 1027.3,748.9 1021.8,755.8 1014.8,764.9 1004.9,777.8 996.8,787.8 987.7,799.8 
				983.8,804.8 963,831.5 962.3,832.3 961.1,833.9 959.6,835.8 957.7,838.2 954.7,842 951.4,846.3 949.4,848.7 942.3,857.7 
				936.5,865 933,869.6 928.2,875.5 919.9,885.8 917.7,888.7 892.8,920.7 884.2,931.6 876.5,941.6 867.6,952.9 843.6,952.1 
				837.5,951.9 827,951.7 816.7,951.6 794.8,951.2 782.4,951 771.2,950.9 758.3,950.8 718.1,950.6 716.1,959.9 713.8,971.3 
				712.4,979.8 713.7,980.6 716.6,984.7 715.4,988.9 709.9,991 707.7,990.5 705.5,985.4 699,985.6 695.3,985.7 693.1,985.7 
				668.6,986.5 656.2,986.7 598.6,988.4 585.5,988.9 573.4,989 573.3,1007.4 573.2,1023.1 562.3,1023.4 549.1,1023.6 536.5,1023.8 
				523.9,1024.1 514.5,1024.2 500.6,1024.6 			"/>
			<polygon class="st2" points="814,1991.1 799.8,1987.7 778,1982.7 768.1,1980.1 758.1,1977.7 756.3,1977.4 704.4,1965 
				686.3,1960.6 677,1958.1 675.3,1957.7 664.4,1955.1 648.4,1951.2 653.2,1931.4 658,1911.6 653.1,1910.4 641.5,1907.6 
				639.2,1907.1 633.7,1905.7 619.8,1902.4 605,1898.8 590.4,1895.3 578,1892.2 584.6,1865.2 589.7,1844.7 591.5,1837.2 
				591.9,1835.7 592.1,1834.9 592.4,1833.7 592.7,1832.4 593,1831.3 593.7,1828.6 595.6,1821.8 600.8,1800.2 606.1,1777.7 
				606.7,1775.2 608.8,1766.6 611,1757.2 614.4,1743.4 632.3,1747.6 634.6,1738.4 636.2,1731.6 636.6,1729.6 636.8,1728.9 
				640.1,1715.8 642.4,1706.5 646.5,1690.1 647.4,1686.3 650.9,1670.8 652.1,1666.4 658,1641.6 640,1637.4 641.6,1630.9 
				643.2,1623.9 645,1616.4 647.1,1607.8 653.9,1580.5 656.9,1568.2 659.6,1557.3 663.3,1542.3 648,1538.6 653.8,1515.4 
				656.4,1504.4 657.1,1501.7 657.6,1499.4 662.7,1478.6 665.2,1468.4 667.9,1457.8 674.2,1431.8 678.2,1415.1 680.5,1405.8 
				682.9,1395.3 684.6,1387.9 687.4,1376.8 692.2,1358.1 695.5,1344.7 697,1338.7 697.7,1335.7 699.6,1327.7 704.2,1309.5 
				704.4,1308.9 710.2,1285 713.9,1268.9 714.6,1266 719.5,1247.3 723,1233.9 725.5,1223.2 697.2,1223.2 693.6,1223.1 687.5,1223 
				669.1,1223 661.1,1222.6 655.9,1248.2 652,1265 651.9,1265.9 645.6,1295 642.7,1308 621,1307.5 600.4,1307.1 570.6,1306.4 
				546.2,1306.1 523.2,1305.7 523.3,1269.7 523.1,1220.5 498.3,1220.3 498.2,1209.4 498.2,1207.9 498,1193.6 497.9,1177.1 
				497.9,1172.4 523.3,1172.6 547.6,1172.8 571.7,1173 571.9,1153.9 572.2,1134.9 572.2,1115.8 572.5,1088.4 572.8,1058.8 
				572.8,1058.5 573,1046.8 573.2,1023.7 573.2,1023.1 573.3,1007.4 573.4,989 585.5,988.9 598.6,988.4 656.2,986.7 668.6,986.5 
				693.1,985.7 695.3,985.7 699,985.6 705.5,985.4 707.7,990.5 709.9,991 715.4,988.9 716.6,984.7 713.7,980.6 712.4,979.8 
				713.8,971.3 716.1,959.9 718.1,950.6 758.3,950.8 771.2,950.9 782.4,951 794.8,951.2 816.7,951.6 827,951.7 837.5,951.9 
				843.6,952.1 867.6,952.9 863.9,957.6 857.1,966.2 844.8,981.9 838.8,989.7 836.3,993 828.2,1003.3 824.8,1007.8 818,1016.6 
				807.8,1029.8 798.1,1042.4 795.8,1045.3 793.5,1048.3 793.2,1053.5 792.4,1092 783.5,1091.7 773.5,1091.5 760.9,1091.4 
				758.3,1098.2 757.7,1100.4 754.9,1111.7 752.6,1119.9 751.9,1122.1 744.8,1149.5 738.5,1174.7 739.5,1174.6 749.3,1174.7 
				790.7,1175.6 791.1,1162.3 791.3,1150.2 825.8,1150.9 833.5,1151.2 835.1,1151.2 841.4,1151.2 847.6,1151.3 861.4,1151.6 
				875.1,1151.9 875.7,1151.9 888.8,1152.1 902.5,1152.4 915.8,1152.6 916.7,1152.6 916.7,1153 917.5,1152.9 931.8,1153 
				946.5,1153.2 961,1153.4 975,1153.6 989.3,1153.9 1004.7,1153.9 1026.9,1154.4 1048.5,1154.8 1070.6,1155.2 1073.7,1155.3 
				1076.1,1155.4 1079,1155.5 1078.9,1164.1 1139.2,1165.7 1139.2,1173.9 1139.2,1182.2 1139.2,1191.8 1139.2,1201.7 1139.2,1213.5 
				1139.2,1216.1 1139.2,1226.8 1139.3,1234.1 1139.3,1235.6 1139.2,1255.9 1096.6,1255.5 1089.2,1255.5 1082.7,1255.6 
				1081.8,1255.6 1078.3,1255.5 1071,1255.3 1068.2,1255.2 1066.5,1260.3 1057,1285.1 1054.1,1291.9 1052,1297 1048.9,1304.4 
				1044.3,1315.2 1039,1328.3 1044.1,1328.4 1051.5,1328.5 1055.9,1328.6 1071.8,1328.8 1085.8,1329 1101.8,1329.3 1117.9,1329.6 
				1135.3,1329.9 1159.4,1330.3 1176.9,1330.6 1187.1,1330.9 1192.1,1331 1200,1331.2 1207.1,1331.4 1221.2,1331.7 1224.8,1331.8 
				1224.9,1317.9 1224.8,1307.4 1226.9,1306.2 1230.7,1304.1 1239,1299.8 1239.1,1293.4 1239,1272 1239,1258.6 1238.9,1237.1 
				1238.9,1227.5 1238.9,1220.3 1238.8,1215.5 1238.7,1202.5 1238.7,1193.5 1238.6,1175.6 1265.7,1176.2 1267,1176.2 1271.5,1176.4 
				1289.9,1176.6 1305,1176.8 1338.7,1177.5 1360.5,1177.8 1360.6,1161 1338.7,1160.5 1328.7,1160.3 1328.7,1144 1328.7,1128.1 
				1328.7,1110.8 1344.2,1111.2 1358.4,1111 1360.3,1110.9 1368.2,1110.7 1375.2,1110.5 1384.9,1110.1 1389.7,1109.9 1401.6,1109.4 
				1404.4,1109.3 1417.8,1108.7 1419,1108.7 1434.6,1108 1446.8,1107.6 1458.3,1107.5 1473.1,1107.5 1488.1,1107.4 1503.2,1107.4 
				1503.3,1137.5 1503,1157 1502.4,1157.3 1502.4,1206.5 1502.4,1207.3 1502,1207.3 1487.1,1207.3 1486.6,1207.3 1471.8,1207.3 
				1471.1,1207.3 1456.6,1207.4 1455.7,1207.4 1443.3,1207.4 1419,1207.5 1409.8,1207.5 1404.6,1210.3 1396.8,1214.3 1389.9,1218.1 
				1385.9,1220.3 1375.8,1225.8 1375.8,1283 1360.6,1283.1 1360.7,1334.6 1350.9,1334.3 1345.3,1334.2 1333.7,1334 1330.1,1333.9 
				1319.1,1333.7 1314.7,1333.7 1304,1333.5 1299.5,1333.4 1290.7,1333.3 1290.9,1386.3 1275.1,1392.9 1262.7,1398.2 1261.4,1398.7 
				1247.7,1404.4 1234.1,1410.4 1220.8,1416 1206.7,1422 1191.4,1428.6 1175.2,1435.4 1144.8,1448.4 1140.1,1450.4 1135.2,1452.5 
				1123.9,1457.3 1106.8,1464.7 1098.9,1468.2 1089.3,1472.2 1073.1,1479 1056.1,1486.3 1037.7,1494 1037.7,1499 1037.8,1544.1 
				1038,1553.5 1038,1574.9 1035.4,1575.7 1020.9,1579.9 1020.8,1614.8 1020.6,1651.1 1020.2,1651.1 1020.1,1706.8 1020.1,1707.2 
				1019.9,1716.8 1019.8,1742.5 1014.8,1742.4 1005.1,1742.4 990.2,1742.4 990.1,1753.7 990.1,1762.7 989.8,1771.8 989.9,1773.9 
				989.9,1781.2 989.9,1790.2 989.7,1814.7 989.5,1825.8 989.5,1831.3 989.5,1833 989.4,1841.3 989.3,1849.4 989.3,1857.5 
				989.2,1863.9 987.4,1869 987.2,1869.5 979.4,1883.2 978.7,1882.8 968,1884.9 958.5,1886.5 933.5,1880.4 915.2,1876 905,1873.4 
				902.8,1876.4 901.1,1879.7 899.8,1883.6 895.5,1901.3 891.8,1900.3 873,1895.6 871,1904.3 866.8,1922 863.9,1934.5 862.2,1941.4 
				861.7,1943.6 861,1946.7 857.9,1959.5 855.2,1970.9 853.2,1979.4 850.8,1989.5 816.4,1981.2 			"/>
			<path class="st3" d="M827.9,2301c-5.7-2.6-12.6-6.6-16.9-11.1c-1-1.7-2.4-5.1-2.7-7c0,0-0.5-5.5-0.5-5.5c-2-9.3-6.4-22.5-8-31.8
				c-1.1-9.7-1-20.8,1.4-30.3c1.2-7.9,3.8-17.1,7.5-24.2c2.5-3.2,6.7-8.5,10.2-10.7l2.7,1.2l0.3,22.8h4l-1.1-69.1l-2.3-0.5
				c-2.8,2.4-10.4,1.3-13.8,1.4c-4.7-1-14.3-2.2-19.1-2.5c0,0-12,1.4-12,1.4l-15.5,5.4l-36.1,30.7c-2.3,0-14.2,0.2-16.2,0.3
				c-1.8-2.1-11-12.4-12.5-14.3c-1.5-17.2-2.4-46.4-3.2-63.6c2.8-1.8,8.5-5.5,11.3-7.4l-1.1-1.6c-1.8,0.4-10,2.3-11.6,2.6
				c-6.9-24.8-26.4-71.9-38.8-94.6c-6.1-5.4-16.1-13.8-22-19.2l-0.1-3.1c0,0-3.6-0.5-3.6-0.5c-18.2-7.9-50.3-27.3-66.3-39
				c0,0-2.5-1.8-2.5-1.8c-2-2.7-5.7-9.6-7.6-12.4l-1,5.8c-0.3-0.4-0.9-1-1.3-1.3l1.2-5.5c-10-15.1-22.1-41.6-31.5-57.2
				c-0.5-0.6-1.8-2.7-2.6-2.9c-2-1.9-5.9-5.2-8.1-7c-3.1-2.5-9.4-6.2-13-7.8c0,0-3.9-0.4-3.9-0.4s-63.3-2.9-63.3-2.9l-0.1-1.7
				c0.3,0-19.4-4.9-19.8-5c-12.4-34.6-25.2-78.5-42-111.3l-5.9-0.1l6.3-11.2l13.2,7c1.3,20.9,9.9,42.3,17.5,61.6
				c3.6,8.7,10.6,17.8,17.1,24.6c7.9,8,14.1,13.3,25.8,14.6l1.1,2.9c0.2-0.1,3.7-0.6,4-0.6l-0.6-2.8c5.8-1.1,13.9-5.8,18.9-8.8
				c-0.1-0.5-1.2-4.3-1.3-4.7c-6.8,1-10.3-0.1-12.4-7l-1.3-0.5l17.5-8.9l-2.3-4.4c-3.6,2.4-7.4,3.6-11.7,2.3c-3.6-1.6-5-6.2-6.2-9.6
				c-0.6-2-3.4-9.9-3.3-11.9c0-1.6,1.4-3.7,2.4-4.8c0.2,0.1,7.2-3.9,7.7-4.1l-1.5-3.1l-9.7,3.2l-7.4-2.3l-8,7.1l-3-0.1
				c-0.8-0.8-2.5-2.3-3.4-3.1l0.4-2.9c1.5-1.8,9.1-10.8,10.8-12.8l-9.2-7.7l-12.6,14.3l-4.4,0.6c-0.8-0.9-2.6-2.7-3.4-3.6l-0.2-3
				l12.2-14.6l-2.5-2.5l-5.7-0.1c-5.4-6.4-26.5-31.9-32.3-38.8l4.5-2.5c-0.3-1.1,6.1-8.1,6.7-9l-6.9-8.6l-4.4,4l-4.1-3.8l5.1-4.7
				l-6.7-8l-24.4-4.8c-12.8-14.6-39.5-46.1-52.9-60.3c-19.6-18.1-46.5-44.2-65.6-62.6c0,0-4.2-3.5-4.2-3.5s-2.6-3.7-2.6-3.7
				c-1.2-2.5-16.2-41-17.2-43.3c0,0,4.4-0.8,4.4-0.8c4.9-3.3,14.8-10.3,19.4-13.9c9.1-6.2,20-13.6,29-19.8l24.1,31.7
				c1.6-1.1,5.7-3.9,7.2-4.9c24,33.2,51.6,73.7,78.8,104.2c4.3,4.3,9.7,11.2,15.5,13.5c0,0,4.7,0.5,4.7,0.5l3.9-0.7
				c0,0,11.4-7.8,11.4-7.8c12.6-8.6,27.5-19,40.1-27.4c-13.9-21-29.5-43.3-43.8-64.1c22.3-15.3,47.1-32.5,69.4-47.7
				c-5.1-6.8-16.7-25-22.2-31.8c18.1-13.5,40.9-25.4,56.1-42.3c0,0,1.7-7.6,1.7-7.6s-0.3-12.3-0.3-12.3c-0.2-3.9-0.1-15.5-0.2-19.6
				c-0.4-31.8-1.2-69.7-1.2-101.7l24.8,0.2c0.1,20.8,0.2,64.7,0.1,85.2c38.2,0.6,81.3,1.4,119.5,2.3c5.7-26.3,13.1-59,18.4-85.4
				c19,0.8,45.2,0.5,64.4,0.6c-26.2,104.7-51.7,210.6-77.5,315.4l15.3,3.7c-7.5,30.6-16,64.4-23.3,95.1l18,4.2
				c-8.2,34.7-17.2,71.5-25.7,106l-17.9-4.2c-11.6,48.9-24.4,100-36.4,148.8c26,6.5,54,13,80,19.4c-2.4,9.9-7.2,29.7-9.6,39.6
				c53,13.1,112.4,27.4,165.6,39.9l2.4-9.9l34.4,8.3c7.3-30.8,15.1-63,22.2-93.9c2.7,0.7,20.3,5,22.5,5.7c2.1-7.3,4-22.3,9.5-27.9
				c15,3.9,38.3,9.3,53.5,13.1c5-0.8,15.2-2.7,20.2-3.7l0.7,0.4c2.2-3.9,9-15.1,9.8-19.3c0.1-9.6,0.1-21.2,0.3-30.9
				c0.3-29.4,0.4-61.2,0.7-90.6c8.3,0,21.4-0.1,29.6,0.1c0.1-22.2,0.5-68.6,0.4-91.4h0.4c0.1-17.8,0.3-53.5,0.3-71.2
				c1.9-0.5,15.7-4.5,17.1-5c0-21.4-0.4-59.2-0.3-80.9c84.2-35.4,169-72.4,253.2-107.7l-0.2-53c22.9,0.4,47.1,0.6,70,1.3l-0.1-51.5
				l15.2-0.1v-57.2c10.8-5.9,23.1-12.6,34-18.3c29.8,0,62.5-0.3,92.2-0.2c0.1,9.8-0.2,24.4-0.3,34.2c-5.4-0.2-16.2-0.5-21.5-0.7
				c-0.1,21.4-0.1,51.2,0,72.6l3.1-0.5c-0.1,2.8-1.5,56.4-1.6,61.1c12.8,6.2,20.1,5.3,33.5,5.4c-0.9,45.8-2.6,99.2-3.7,144.8
				c-5.4,3.2-33.4,19.3-39.5,22.8c-3.5,5.7-7.3,13.1-9,19.6c-2.2,12.8,5.4,23.2,10.3,34.2c2.2,3.8,1.8,10.4,1.8,14.7
				c-0.6,5.9,1.3,95.3-1.8,98.7c10.1,0,26.1,0.2,36.3,0.3c1.6,5.4,2.1,13.3,1.9,18.9c0.3,8.7-0.5,21.6-0.5,30.4
				c-0.3,7.5-0.4,23.6-0.6,31.1c0.2,5.6-1.3,13.6-3.8,18.7c-37.1,70.3-77.9,145.8-114.4,216.4c-56-29.5-121.2-64.1-176.8-93.4
				c-5.3-2.7-37.6-20.2-43.2-22.7c-4.2-1.5-9.9-1.6-14.3-1.1l-1.6-6.3l-12.7,12.3l-19.7,40c-1.2,2.8-23.2,46.6-25.3,50.8
				c-16.7-3-37.4-8.2-53.7-13.2c-1.6,5.6-5.5,22.5-6.9,28.3c-18.6-4.8-49.5-12.3-68.2-16.8l-18.7,16.1c-16-4.1-34.4-8-50.4-12
				c0.1,2.3,1.4,47.9,1.4,48.8c-0.6,14.8,0,34,1.8,48.8c1.4,13.4,7.5,28.2,12.5,40.6c-8.3,1.3-19.7,4-27.9,5.1
				c-3,0.9-9.5,2.8-12.4,4.1c-1.5,1-3.9,4.4-4.9,5.9c0,0-0.9,4.6-0.9,4.6l0.7,3.1c-0.5,5.9-2.4,13.8-3,19.7c0,0,0.3,8.1,0.3,8.1
				l3.3,11.4c5.3,12.5,11.3,27.4,21.5,36.8c3.3,2.3,8.7,5,11.7,7.6c3.4,5.8,2.8,14.4-1.8,19.4c-11.6,4.3-26.3,3.5-37.4,9.4
				c-3.8,2.1-11.7,6-15.6,7.8c-3,1.9-9.4,5.7-12.6,7.2C835,2300.8,830.4,2301.2,827.9,2301z"/>
			<path class="st4" d="M1282.6,2364.8l-44.9-0.3c0.7-35.4,0.8-72.9,1.4-108.3c-31.3-14.2-65.8-28.8-96.8-43.6
				c-15.2-14.5-39.3-36.2-54-51.1c7.9-7,13.2-14,25-11.9c5.6,0.7,13.6,2.7,18.8,4.9c22.3,9.3,50.3,26.8,71.7,38
				c5.8,3.5,16.2,10.1,21.8,14.1c12,8.1,28.2,20.5,43.3,13.7c7.3-2.7,16.3-7.2,22.2-12.3c0,0,5-3.4,5-3.4l5.9-2.2
				c14.3-7.9,31.8-18.1,46.9-24.6c1.4,0.2,0.8,16.9,1,17.8c-2.9,6.5-8.1,18.9-11.2,25.2c-10.4,4.1-33.1,13.3-43.6,17.6l-15.8,35.6
				l3.5,1.5c12.8,24.2,27.2,50.7,40.3,74.7l-40.5,22V2364.8z M1000.3,2210.5c-4-8.6-7.6-18.8-8.3-28.3c-0.1-2.8-2.3-6.5-3.6-9
				c0,0-5.4-11.3-5.4-11.3l-11.4-7.4l-2.6,0.4l-2.4-0.7l-1.7,2.4l-3.5-3l1.8-2.9c-0.2-0.2-1.7-2.9-1.9-3.2c0,0-2.9-2.4-2.9-2.4
				c-3.8-1.6-9.4-2.7-13.5-2.5c-9.3,0.7-19.2,6.8-28.5,7.6c-5-12.4-11.1-27.2-12.5-40.6c-1.8-14.8-2.4-34-1.8-48.8
				c0-0.9-1.3-46.6-1.4-48.8c16,4,34.4,7.9,50.4,12l18.7-16.1c18.7,4.5,49.6,12,68.2,16.8c1.5-6,5.3-22.7,6.9-28.3
				c16.3,5.1,37,10.2,53.7,13.2c2.2-4.4,24.1-47.8,25.3-50.8c0,0,19.7-40,19.7-40l12.7-12.3l1.6,6.3c4.4-0.5,10.1-0.5,14.3,1.1
				c5.6,2.5,37.9,20,43.2,22.7c55.5,29.3,121,63.9,176.8,93.4c36.5-70.6,77.3-146.1,114.4-216.4c2.5-5.1,4-13.1,3.8-18.7
				c0.2-7.5,0.3-23.6,0.6-31.1c0-8.8,0.8-21.7,0.5-30.4c0.2-5.6-0.3-13.5-1.9-18.9c-10.2-0.1-26.2-0.3-36.3-0.3
				c3.1-3,1.2-93.1,1.8-98.7c0-4.3,0.4-10.8-1.8-14.7c-4.9-11-12.5-21.4-10.3-34.2c1.7-6.5,5.5-13.9,9-19.6
				c6.2-3.6,33.9-19.5,39.5-22.8c1.1-45.6,2.8-99,3.7-144.8c-13.5-0.1-20.7,0.8-33.5-5.4c0.1-4.9,1.5-58,1.6-61.1l-3.1,0.5
				c-0.1-21.4-0.1-51.2,0-72.6c5.3,0.2,16.1,0.5,21.5,0.7c0.1-9.8,0.4-24.4,0.3-34.2h0.4c0-0.9,0-49.1,0-50l0.6-0.3
				c0.3-11.5,0.3-37.8,0.2-49.6c-17.6,0-38.8,0.1-56.4,0.2c1.3-47.2,5.8-114.7,3.3-161.8c7.2-0.1,18-0.2,25.1-0.2
				c0,0,0.1-8.6,0.1-8.6s-4.3-11.3-4.3-11.3c-6.3-15.8-14.8-37.4-21-53.2c17.1,0,52.3-0.1,69.5-0.2c-0.2,23.2-0.2,49.7-0.4,72.9
				c72.1-1,144.9-0.9,217-2.1c-1.7,75,3.5,159-0.7,234c2.8,36.8-1.3,89.8-0.3,126.6c0,39.9-0.9,81.5-1.9,121.3
				c-1.8,72.9-0.5,166.9-3.8,239.6c0,0-1.3,30.8-1.3,30.8s0.1,1.3,0.1,1.3s1.2,11.9,1.2,11.9s0.1,1,0.1,1
				c-2.2,7.9-1.4,47.5-1.7,56.1c-1.4,21.8-2,70.9-1.8,93.1c0,0,0,1.1,0,1.1s-1.3,10.2-1.3,10.2s-0.1,16.7-0.1,16.7s0,3.2,0,3.2
				c-0.9,31-2.3,69.4-2.8,100.5l5.5,0.4c-0.3,23.4-0.8,55.8-0.9,79.2l-7.8,3.6c-0.8,15.6,0.4,39.5,0.5,55
				c-0.3,32.5-2.2,88.1-2.8,120.9c-39.8-23.8-107.3-75.6-145.4-103.2c6.2-9.8,17.8-10.4,28-12c3.5-0.7,9.8-2.8,13.4-2.6
				c2.7,0.2,6.2-1.6,8.6-2.8c2.3-0.3,6.9-1.3,9.1-2.1c0,0,2.1-0.5,2.1-0.5l2.4,0.3c4.9,0.1,12.5-1.7,17.4-2.3c0,0,14.2-0.5,14.2-0.5
				c6,0.1,15.8,1.1,21.7,0.9l0.1-7.2c-13.8-0.6-29,1.4-42.8,2.8c-7.7,0.8-21.8,1.8-29.4,2.7c-10.7,1.4-27.1,5.5-37.8,7.7
				c-5,2.8-6.4,3.8-8.8,9.2c-2.6,2.2-6.5,4.8-9.1,7c-4.4,2.3-7.7,1.6-12.4,0.9c-3-0.9-5.1-5-6.8-7.4c-2.6-3.1-7.2-7.8-9.8-10.8
				c-2.6-3.5-7.3-10-10.9-12.5l-0.2-0.5h-0.7c-4.5-2.5-11.2-6.5-15.3-9.5c-7.6-6.5-16.6-16.6-27.5-16.3c0,0-5.7-0.7-5.7-0.7
				l-6.6-2.3c-2.6-2.7-6.8-6.3-10-8.4c0,0-7.1-3.3-7.1-3.3c-2.2-0.4-10.1-1.7-12.1-2.7c-4.8,0.7-9.2,4.2-12.2,7.8
				c0,0-1.8,3.4-1.8,3.4l-0.1,5.3l-2,5.3l-3.7,5.5l-1.5,5.5l-0.7,7.5c0.6,3.3,1.3,10.3,1.2,13.7c-0.6,5-0.2,7.3-4.7,10.6
				c-1.9-0.2-5.1,0.4-6.9,1l4.2,7.5c-7.7,2.8-12.9,11.6-20,15.5c-6,2.3-15.8,4.9-21.8,7.3c-3.2,1.9-12.5,7.3-16,8.4l-5.3-10.8
				c-9.5,5.2-27.8,11.4-37.8,15.3c0,0-9,6.7-9,6.7c-2.8,1.9-13.6,5.5-16.9,6.8c0,0-14.9,7-14.9,7c-1.8,1.2-5.5,3.4-7.5,3.9
				c-6.2,1.1-13.6-3.9-19-6.5c-17.7-11.2-57.2-32-75.7-42.8c-7.9-4.2-32-17.9-40.7-20.7c-5.7-1.9-13.5-4.2-19.4-2
				c-6.7,4.2-16.4,13.3-22.4,18.5c-7.6,6.7-28.3,25.3-36.5,30.7c-3.2,2.2-6.1,7.6-8.2,10.7c-1.1,3.2-4.1,8.1-3.9,11.7
				c0.8,1.5,2.1,4.5,2.6,6.1c0,0,8.3,13.6,8.3,13.6c1.1,2.8,3.6,9.2,4.2,12.1c0.3,5.3,2,13.7,0.9,19c0,0-2.8,4.3-2.8,4.3l-2.9,2.3
				c-3.7,1.5-6.2,1-9.2-1.7c-7.3-6.2-12-18.3-17.2-26.3c0,0-5.6-10.8-5.6-10.8C1008.5,2222.8,1000.7,2213.2,1000.3,2210.5z"/>
			<path class="st5" d="M1224.8,1331.8c-61.5-1.6-124.3-2.5-185.8-3.5c9.3-23.2,21.2-49.4,29.2-73.1c18.1,0.6,52.5,0.3,71,0.7
				c0.1-29.6-0.1-60.7,0-90.2l-60.3-1.6l0.1-8.6c-53.5-1.3-108.8-2.2-162.3-2.5v-0.4c-40.7-0.6-84.6-1.6-125.4-2.4
				c-0.1,6.3-0.4,19.1-0.6,25.4c-8.1-0.1-44.8-1.2-52.2-0.9c4.5-18,11.2-45.3,16.4-63c1.3-5.5,3.6-15.2,6-20.3
				c9.3,0,22.2,0.2,31.5,0.6c0.1-3,0.8-42.2,1.1-43.7c72.7-94.8,148.1-189,221.3-283.4c72.5-91.5,146.4-183.2,220.1-273.7
				c3.6,3.1,40.5,32.3,42.1,35.2c1.3,1.6,3,6.2,3.7,8.2l1.6-0.9l1.2,0.4c4.2,4.8,7.1,15.4,9.4,21.3c1.9,6.2,12.7,28,11.6,34.4
				c71.5,2,144.5-0.6,216-1c0,94.3-0.4,189.2-1,283.5c-17.3,0.1-52.3,0.2-69.5,0.2c6.2,15.8,14.8,37.4,21,53.2
				c0,0,4.3,11.3,4.3,11.3s-0.1,8.6-0.1,8.6c-7.1,0-17.9,0.1-25.1,0.2c2.5,47.1-2,114.7-3.3,161.8c-39,1-79.1,4.4-118.1,3.2
				c0,14.7,0,34.8,0,49.5c6.5,0.1,25.2,0.5,31.9,0.7l-0.1,16.8c-39-0.6-83-1.3-121.9-2.2c0.1,40.7,0.6,83.4,0.4,124.2
				c-3.8,1.9-10.6,5.5-14.2,7.6C1225,1313.3,1224.9,1325.9,1224.8,1331.8z"/>
			<path class="st6" d="M162,975.4c-0.4-9.2-0.4-20.9-1.7-30.1c-1.4-12.9-14.7-62.1-16.7-75.1c-0.9-3.8-2.4-11.5-2.8-15.3
				c-0.1-2.9-0.5-11.2-1.1-14c-3.2-13.6-8.2-30-10.9-43.8c10.1-2.6,23.4-6.5,33.2-10c10.8-4.6,23.2-11.6,32.5-18.7
				c4.4,7.4,11.9,16.2,16.4,23.6c2.9,1.7,8.1,106,9.2,111.9c0,1.1,0.7,6.7,0.1,7.7c-0.4,1.1-4.5,20.1-5.2,20.6c-0.1,3,1,6.8,2.1,9.6
				c-2.6,11.2-8.1,30.7-10.9,41.8c-0.3,1,0.3,2.4,1,3.1l-0.2,0.7c0,0-8.4,10.4-8.4,10.4c-0.3,1.4-9,33.9-8.9,34.3
				c-1.4,0.1,0.4,41.1,0.2,42.5l1.9,0.1c-0.3,17.1-0.7,43.8-1,61.1l-0.8,0.8l0.1,4l-4.4-0.7l-6.3-44l2.7-0.4
				c-0.6-3.3-1.4-8.3-2.6-11.5c-0.1-1.9-0.4-5.6-0.7-7.4c-0.8-2.6-2.4-5.9-3.8-8.2c0,0-0.5-4.1-0.5-4.1c-1.2-15.6-5.3-36.2-7.7-51.8
				C165.1,1001.4,161.6,986.7,162,975.4z M383.4,1583.3l-4.7-0.5l-4.8-2.6c-2.6-2.4-8.2-8.3-10.7-10.9
				c-27.1-30.4-54.9-71.1-78.8-104.2c-1.5,1-5.7,3.8-7.2,4.9l-24.1-31.7c-9,6.2-20,13.6-29,19.8c-4.6,3.5-14.6,10.6-19.4,13.9
				c0,0-4.4,0.8-4.4,0.8l-4.6-1.8l-5.2-54.1l6-2.2c0.8-3.9,2-15.2,2.3-19.4c-0.2-2.8-1-6.5-1.3-9.2c0-3.8,0.6-9.3-1.1-12.8
				c-0.1-1.6,0-5.7,0-7.3c0-0.8-0.4-8.1,0.1-8.7c1.1-0.5,3.9,4.1,4.5,4.6l3.6-2.8c-2.9-6.9-5.4-15.3-4.8-22.8
				c0.3-19,2.6-45.9,4.1-64.9c4.1-57.9-0.6-120.4,0.4-178.4l-0.3-0.4l0.3-0.4c0-0.3-0.2-0.9-0.3-1.2c1.3-3.7,1.5-11.6,2-15.5
				c0.7-6,2.5-18.3,4-24.1c7.2-28.2,17-60.4,22.6-89l1.5-1.4c2.4-11.1,5.7-27,8.1-38.2c2-13.3,1.8-35.5,1.4-49
				c0.7-0.6,1.7-1.5,2.1-2.3c0.2-11.2,0.2-27.9-0.4-39.1c4.5,0.7,13.6,0.9,18.3,0.7c0.3,2.1,30,4,31.7,4.4c6.3,0.6,23,2.5,29,2.1
				c25.2-0.8,54-1.2,79.2-1.3c0,0,3.8-1,3.8-1c8-0.2,24.5-0.5,32.6-0.6c23.9-0.4,51.3-1.4,75.1-0.4l0.6,36.9c0,0.5-0.2,1.3-0.3,1.8
				c-3.2,34.3-7.2,71.7-10.2,106.1l-4.3,1.9l-4.2,3.3l-2.9,3.8l4.3,6l4.4,3.4c-0.4,5.9-1.4,19.1-1.8,25.1
				c23.5-0.7,49.1-0.8,72.6-1.5c-0.6,48.8-1,101.1-1.5,149.9c-21.9-0.2-51.9-0.4-73.8-0.6c0.4,59.7,1,121.8,2.1,181.5
				c0,0-1.7,7.6-1.7,7.6c-2.3,3.2-11,10.4-13.9,13.2c-12.9,9.1-29.3,20-42.2,29.1c5.5,6.8,17.1,24.9,22.2,31.8
				c-22.3,15.2-47.1,32.4-69.4,47.7c14.3,20.8,29.8,43.1,43.8,64.1c-12.6,8.4-27.5,18.8-40.1,27.4c0,0-11.4,7.8-11.4,7.8
				S383.4,1583.3,383.4,1583.3z"/>
			<path class="st7" d="M104.9,712.8l1.1-0.2c0.7,0.6,2.2,1.6,3,1.9c0.6,0.4,1.5,1.1,2.2,0.6c1.1-3.8,4.8-6.2,7.9-8.1
				c1.3-1.3,1.7-3.6,1.9-5.4c-0.1-1.4-1-4.1-0.1-5.4c0.3-0.1,0.9-0.3,1.2-0.1c0.4,0.8,1.4,2.3,2.3,2.6c0.7,0,2,0.2,2.7,0.4
				c3.5,2.8,7.4,8.2,10.8,11.2c3.1,2.2,7.1,6.3,9.7,9.1c1.2,1.5,2.5,3.8,4.2,4.9c2.1,1.3,4.7,3.4,5.8,5.7c0.1,0.6,0.7,2,1.1,2.5
				c1.2,0.2,2.8,0,4-0.1c1.9,7.7,28.6,28.9,31.8,36c-9.3,7.1-21.7,14.1-32.5,18.7c-9.8,3.5-23.1,7.4-33.2,10
				c-3.3-14.5-7.2-35.1-12.6-48.8c-0.8-2.2-4-8.4-5.1-10.6c-1.4-2.4-6.4-21.5-7.3-24.6L104.9,712.8z M252.8,833.2
				c-2.2-0.3-5.3-0.6-7.5-0.8c0.2-3.8-1.7-12.7-2.6-16.5c-0.1-1.4-0.7-4-1.1-5.3c-0.9-3.7-2-9.3-2.8-13c-0.8-2.2-3.2-7-4.2-9.1
				l-1.9-1c-1-1.8-3.3-5.4-4.5-7.1c-1.8-1.3-5.6-4.4-6.7-6.3c0,0-1.1-2.7-1.1-2.7c0-0.6-0.4-1.6-0.8-2c-0.6-0.6-2.3-2-3-2.5
				c-0.4-0.4-3-3.5-3.4-3.8c-0.5,0.1-1.3,1-1.6,1.3v1.2l3.6,4.9l-2.4,2.3c-7.1-7.1-31.3-31.3-38.9-38.8c0-0.1,7.1-6.7,7.5-7.1
				l-8-8.7l-3.7,2.7l-2.7-3.3l5.5-5.3c-1.8,0.4-5.8,1.4-7.6,1.8l-0.8-2.9l6.8-1.8l-0.6-2.2l-1.7-2.2l-2.8,0.9l-1.3-4.6l-1.7-1.4
				l-8.9,1.8l-1-3.1l11.5-3.2l-0.7-3.2c-1.9,0.7-10.5,3.5-12.1,4.3c-0.5,0.5-9.1-6.1-9.6-6.4c-0.4-0.5-4.2-4.8-4.7-5.4
				c-3.8-4.7-18.8-28.4-21.9-33.8c-0.4-1.4,0.8-2.4,1.9-3c1.1-0.4,6.3-1.8,7.3-2.2c0.2-0.2-0.1-1.6-0.1-1.8c-0.2-0.3-0.7-0.6-1-0.7
				c-1-0.1-9.7,2.2-10.7,1.9l-9.3-19.3c-1.2-2-3.3-6.3-3.9-8.6c-0.4-1.3-1.4-4.7-0.9-6.1c0.3-0.3,0.9-0.7,1.2-0.8l0.6,0.3
				c1.3,3.4,11.4,25,12.2,28.6c0.3,0.5,1,1.6,1.4,2c0.9,1.1,20.1-6.7,21.3-6.9l-15.5-41.1l-0.3-0.2c-3.8,0.5-16,8.5-19.4,10l0.4,0.5
				c0.2,1.1,0,2.7-0.6,3.6c-1.1,0.3-2.7-1.6-3.5-2.2c-0.3-0.6-1.1-2.3-0.9-3l-0.4-0.3L86.6,571l-0.3-28.5l6.8,0.6
				c0.1-1.5,1.6-19.4,1.8-20.2l11.8-8.6c0-0.7-1-1.7-1.4-2.2c-4.4-2-9.3-1.4-13.9-0.6c-1,0.9-3.2,0-4.3-0.2l0.8-21.4l9.5-1.8
				c0-0.6-0.3-2.3-0.4-3l-10,0.4l-0.3-16.3l1.4-0.1l0.3,3l2.6,0.1l0.1-3.2l1.4,0.2l-4.3-76l-1.4-0.2l-0.3-0.3
				c-0.2-0.5,0.1-1.5,0.2-2l4.2-1.9c0.7-14.4-0.4-30.7-3.1-44.8c-3.3-15-8.7-31.1-15.5-44.9c-2.9-6.5-7.2-18-10.9-24.1
				c-2.4-3.6-11.3-13.9-14.2-17.1l0.2-1.9c1.4-1.2,4-3.3,5.3-4.6l0.2-1.6c66.5-65.8,133.3-132.3,199.4-198.5
				c10.4,10.6,24.7,24.4,34.5,35.5c13.6,16.3,29.3,34.7,43,51l-0.2,2c0.2,0.5,14.4,16.5,15.1,17.4c0,0,2.7,4.1,2.7,4.1l25.8,50.7
				c104.1-0.2,209.1-0.9,313.2-1.3l1.1,14.2l17.9,0.1l0.1,20.9l-16.3-0.1c0.7,14.9,3.1,33,3.8,47.9c1,20.1,2.3,43.2,3.9,63.3
				c6.9,100.2,15.8,202.7,24.6,302.7l0.6-0.4c0.8,1.1,13.5,27.3,15.1,26.5c0,0,1.8,3.8,1.8,3.8c2.1,5.3,2.2,13,2.5,18.6
				c-1.8,0.7-4.5,1.8-6.4,1.5c-4.4,0.5-12,0.5-16.5,0.7c-8.8,1-19.2,0.9-27.9-0.9c-7.1-1.4-14.7-4.9-21.4-7.5c-11-2.9-21-2.7-31.7,1
				c-7.4,2.7-15.3,6.5-22.6,9.2c-2.7,1.1-6.8,1.2-9.7,1.6c-5.7,0.4-15.8-1.6-21.4-2.7c-3.7-0.6-11.6-2.1-15.2-3.1
				c-7.8-1.6-17.4-2.9-24.5-6.9c-5.7-2.6-11-8.2-15.3-12.6c-5.4-8.2-8.9-18.9-16.1-25.9c-5.2-4.4-11.8-9.2-18.1-11.8
				c-9.5-3.2-20.5-6.6-30.6-6.5c-3.7-0.3-10.1-0.3-13.8,0.2c-3.1-0.2-10.3,0.2-13.4,0.2c-5-0.1-13.4,0.3-18.1,2.2
				c-4.3,0.9-9.1,3.6-12.7,6.1c0,0-1.5,1-1.5,1s-2.9,3.6-2.9,3.6s-2.4,2.3-2.4,2.3l-0.5-1c-13.3,12.8-36.9,34.9-49.5,48.1
				c-3.1,3.1-6.4,8-8.6,11.7c-6.1,9.6-7.7,22-11.2,32.5c-0.8,1.9-2.5,5.9-3.3,7.8c-1,2.2-4.6,7.3-6.1,9.3
				c-5.5,5.2-16.2,17.1-21.1,23c-4.5,7.7-12.1,19.5-16.7,27.1c-2.6,2.2-6.4,6.2-8.9,8.5c-2,1.2-7.8,5-9.8,6.2L252.8,833.2z"/>
			<path class="st8" d="M922.8,2748.6l101-38.4l-3-8.9l-109.4,40.4l2.6,6.3c1.2-0.6,3.8-1.5,5.2-1.6l3.1,1.4L922.8,2748.6z
				 M1224.4,2907.5c-5.2-0.7-14.3-2-19.4-2.7c-7.2-38.5-20.4-79.4-34.3-116c-3.4-0.3-10.8-1.4-14.2-2c-9.4-0.3-21.8-0.1-31.2-0.5
				c-8,1-64.2-4.4-73.5-5.1c-13.1-0.3-42.1-1.8-54.9-0.8c-18.7,1.3-51.4,0.6-70.1-0.2c-29.6-0.3-79.1-0.6-108.7-0.7l-3.2-13.7
				l3.9,0.3l0.5,2.1l65-5c3.7-1.4,17.7-6.8,21.2-8l0.3-2.1l1.3-2.1c1.1-0.6,3.4-1.7,4.6-2.1l-2.6-6.4c-8.5,3.5-18.8,6.9-27.6,9.7
				c0,0-14.8,1.6-14.8,1.6c-2.6-0.3-7.5-1.8-9.8-3c-1.8-0.7-7.8-0.3-9.7-0.2c0,0-9.4-0.3-9.4-0.3c-3.5-0.5-11-1.7-14.4-2.4
				c-0.8,0.1-7.1,1.3-7.9,0.9l-1.3-1.1c0-2.5-0.1-8.2-0.5-10.6c-0.3-1.3-0.8-4-0.8-5.3c0.3-2.5,2-6.5,2.7-8.9l-3.3-11.4
				c-0.4-2.8-1.4-8.3-2-11.1c-2-4.9-3.5-12-3.5-17.3c-0.8-3.1-2.5-8-0.8-11c1.7-0.9,3.9-2.6,5.2-4c2.4-0.9,5.5-2.6,7.8-3.6
				c0,0,3.4-0.2,3.4-0.2c1.7,0.4,5,0.8,6.7,0.8c1.8-0.7,5.4-1.3,7.3-1.4c0,0,4.4-1.6,4.4-1.6c4.1-2,9.8-3.3,13.3-6.3l-8.7-30.2
				l-56.1,19.9l-2.5-4.7c-1.8,0.5-8.1,2.3-9.8,2.8l-1.3-3.5l38.4-15.5c0,0,3.3-1.7,3.3-1.7c1.2-1.7,4-4.7,5.6-6
				c4.1-6.1,5.8-12.5,4.3-19.8c-5.5-18.7-13-45.9-18.6-64.6l-43.9,16.7l-64.9-129l15.9-15.3l1.2-0.1c1.4,0.9,2,1.9,2,3.5l-0.7,1
				c-0.5,0.2-1.5,0.4-2,0.4l-11.3,11l34.1,68.9l1.5,2.1c0.6,0.1,2.1-0.2,2.7-0.3c0,0,43.8-15.4,43.8-15.4c1.6-1,2.2-2.8,2.3-4.6
				c0,0-0.8-2.3-0.8-2.3c-3-4.2-19.2-46.4-21.4-52.1c0,0-1-2-1-2c-2.2-1.5-6-4.9-8.8-5.1c-0.9-1.3-4.9-4.8-6.1-5.9
				c0,0-3.4-9.9-3.4-9.9l-2.6-1.1l-0.1-1.4c0.3-0.4,0.6-1.5,0.7-2c-1.1-2.7-3-8.4-3.8-11.2c0,0,0.5-4.4,0.5-4.4l0.5-3.3l-1.4-4.3
				c-1-1.1-5.3-7.3-7-7.5c-1.1,0.6-4.2,0.2-5.4,0c-0.3-0.8-1.4-2.8-1.9-3.6l-80.4,29.2c-2.2-4.8-5.6-12.6-7.8-17.4
				c5.7-2.2,39.1-13,43.2-16.7l2.7-4.7l-4.3-9.5l-48.4,19.2c-11.4-24.9-42.9-76.3-45.7-103.6c-2-4.2-5.7-10.5-4-15.4
				c0.2-0.2,0.6-0.8,0.7-1.1c0,0,1.7-1.2,1.7-1.2c6.5-3.3,16.8-7.6,23.2-11.1c0,0,6.1-1.6,6.1-1.6c1.8-1.2,6.3-4.4,7.9-5.9
				c-1.7-1.3-5-3-5.7-5.2l1.8-1.5l-1.4-4.5l-3-0.1c-1.2-1.4-3.8-4.6-4.7-6.2c0,0-2.3-6.5-2.3-6.5c-0.4-0.4-1.2-0.9-1.7-1
				c-2.6,2.2-3.8,7.2-4.7,10.4c-0.1,0.9-0.3,2.9,0.1,3.8c0.3,0.6,0.7,1.8,0.7,2.4c0,0-6.2,4.6-6.2,4.6s-6.7,3.2-6.7,3.2
				c-3.4,2.3-8,4.2-12,2.3c-3-1-5-5-6.2-7.7c0,0-6.3-15-6.3-15c-1.3-2.2-3.9-7.2-4.3-9.7c-1.6-11.9-9.7-25.6-16.1-35.5
				c-2.6-4.4-9.6-15.8-12.9-19.5c-3.6-6.8-14-26.7-18.6-32.5c0,0-7.3-9.5-7.3-9.5c-2.6-2.2-7.4-7-9.7-9.5c0,0-3.4-4.8-3.4-4.8
				c-1.1-2.2-3-6.4-4.9-8.1l-1.3-0.2c-0.2-0.8-0.8-2.5-1.1-3.3l51.8-23.4l-11-17.5l-54.8,23.1c-1.1-2.1-4-7.5-5.2-9.7l53.6-23.8
				l-6.5-10.6l-4,1.8l-5.3-2.9l-43.4,16.7l-3.5,1.3c-0.9-1.1-2.2-3.8-2.7-5.2c0-2.6,0.7-4.7,2.6-6.5c0,0,4.9-2.1,4.9-2.1l4.4-0.8
				c1.5-0.6,6.6-2.5,7.8-3.4c1.8-6.7-3.5-14.4-4.9-20.8c-1.7,0.8-23.1,16.4-24.8,14.5c0,0-28-46-28-46c-10.3-12.6-20-30.3-28.3-44.2
				c-0.6-0.6-2.4-2.4-3.1-2.9c-1.9-0.6-4.2-2.3-6.1-2.9c-1.1-1-3.9-2.7-5.2-3.5c-0.6-1-1.7-2.3-2.3-3.2l28.9-19l5.1-0.1l0.6-5.7
				l-17.3-1.5l-1.1,5.9l-12,6.3c-1.3-3.4-5.7-14.3-6.9-17.5l12.4-8.5c21,2.4,65.6,7.3,86.8,9.7l5,5l-6,5.1l2.2,2.7l8-5.8
				c2.8,1,5.3,5.5,7.2,7.6c0.9,1,2.7,2.9,3.3,4.1c0.5,1.5,1.7,4.5,2.4,5.9c0.3,2.1,1.2,4.1,2.6,5.6c1.9,3.1,5,9.8,6.3,13.2
				c4.4,8.4,12.9,20.2,17.1,28.7c2.8,5.7,7.9,15.4,11.2,20.9c4.5,5.8,10,14.1,13.6,20.5c0.6-3.8,3.1-15.1,3.9-19.1
				c-2.4-4.3-5.2-9.9-7.3-14.4c-1.5-2.8-7.3-9.5-6-13c0.6-0.8,2.4-2.3,3.2-3c2.3-0.6,5-0.1,6.7,1.7c1.2,1.3,5.1,6.8,6.2,8.4l3-12.5
				c0.4,0.3,1,0.9,1.3,1.3c-0.7,2.7-2.6,10.1-2.8,12.8c0.7,0.9,2.2,1.7,3.2,2.2c1.7,0.8,8.2,7.3,9.7,8.7c0,0,10.6,4.9,10.6,4.9
				c8.4,4.7,49,24.9,55,31.6c1,2.1,3.1,6.4,4.1,8.5l-2.1,0.9l1,1.7l3.6,1.8c1.5,0.3,4.4,1,5.8,1.4c10.8,11.3,20.1,28.9,26.5,43
				l-4.4,3.9l1.3,5.4l4.5,2.6c0.7,2.6,2.8,16.8,5,18.5l1.4-0.9l1.2-0.1l1,0.5l0.7,1.9l6.8,21.6l0.1,15.7v3.1l2.8,4.7l-0.3,49.4
				l4.7,10.3l16.2,9.7c4.2,0.2,11.3,0.6,15.5,0.9l46.4-34.7l19-5.2l17.6,4.8c-5.7,21.1-17.1,51.2-25.9,71.2
				c-2.8,4.9-0.5,11.7,3.4,15.3l1.3,0.3l11.2,52.9l-1,0.8c-1.1,4.7,3.9,9.9,6.4,13.4c2.1,2.4,6.6,7,9.1,8.9
				c6.6,2.9,14.9,5.6,22.1,5.5c0,0,4.9-0.9,4.9-0.9c2.5-1.3,8.9-5.5,11.4-7c0,0,32.3-16.8,32.3-16.8c6.7-0.8,26.4-3,33-1.7
				c3.1-2.1,15-1.6,18.2-3.6c0,0,21.3-14.6,21.3-14.6c2.2-3,2.7-7.7,1.9-11.3c0,0-1.4-2.3-1.4-2.3l-5.6-4.2
				c-4.3-4.5-11.3-8.7-17.4-9.8c0,0-6.5-2.7-6.5-2.7s-3.2-2.4-3.2-2.4l-20.1-10.2l-17.5-37.3c0.4-1.3,1.4-4.7,2.2-5.8
				c0.8-1.9,3.6-8.5,4.9-10c1.8-3,6.4-6.5,8.9-8.9c3.3-1.2,9.8-2.3,13.3-2.3c1.9,0.8,4.5,0.7,6.4,1.4c2.4,0.8,6.3-1.5,8.6-2.1
				c10.6-2.1,24.5-2.5,33.7,4.1c3.9,3.3,7.4,11.6,10.1,15.9c4.8,10.5,14.3,29.9,20.1,39.6c9.8,17.3,20.2,41.4,37.7,52.3
				c0,0,32.9,14.3,32.9,14.3c2.8-0.1,6.8,0.1,8.8-2.3c0.2-1.1-9.2-56.9-9.6-59.5c-0.9-2.4-3.1-7-4.5-9.1c-1.8-2.4-4.6-7.5-5.6-10.3
				c-0.8-3.7-2-8.7-1.9-12.5c0.6-1.5,3-6.3,3.7-7.8c6.5-13.4,25.1-20.9,35.8-31c14.7,14.9,38.8,36.6,54,51.1
				c31,14.8,65.5,29.4,96.8,43.6c-0.6,35.5-0.7,72.9-1.4,108.3l44.9,0.3v7.4l40.5-22c-13.1-24-27.5-50.5-40.3-74.7l-3.5-1.5
				l15.8-35.6c10.6-4.3,33.2-13.5,43.6-17.6c3.1-6.3,8.3-18.7,11.2-25.2c-0.2-0.9,0.4-17.6-1-17.8c3.4-1.1,12.8-6.5,16-8.4
				c6-2.4,15.8-5,21.8-7.3c2-1.2,5.7-4,7.2-5.7c1.6-1.8,7.1-6.5,9-8.1c2.6-1.2,10.7-4.8,13.4-6l6.2-8.6c0.9-6.2,2.6-15.3,4.1-21.3
				c0.1-4.3,0.8-10.4,1-14.7c0.6-0.8,1.9-2.9,2.2-3.8l-0.6-2.2c-0.2-0.7-1.2-2.8-0.8-3.5c1.1-1.8,3.4-3.5,5-4.8
				c3.4-1.4,8.1,2.4,10.8,4c3.2,2.2,15.4,10.3,18.4,12.4c3.1,1.3,4.5,1.2,7.3-0.7c0.2,0.1,2.8,3,3,3c0,0,2.3,0.3,2.3,0.3l3.8,4.1
				l0.7,2.2c1.8,1.8,6.2,6.3,8.1,8.2c2.9,1.3,8.7,4,11.6,5.3c0,0,10.7,2.8,10.7,2.8c0.7,0.7,6.6,7.8,7.4,8.7c0,0,7.9,5.8,7.9,5.8
				c4.4,3.2,11.5,9.3,16,12.2c14.8,9.2,19.2,9.6,29.5-5.3c38.4,27.8,105.4,79.2,145.4,103.2c-1.3,87.3-4.6,177.8-6.7,264.9l21.3-19
				c11.2,5.5,23.6,11.8,34.7,17.4l-20.5,45c5.3,2.7,11.2,6.8,15.7,10.7c3.5,3.5,6.2,8.8,7.5,13.5c0,0,0.7,3.5,0.7,3.5l2.7,5.3
				l4.9,4.8c4.2,2.7,10.3,4.6,14.9,6.4l-22.6,56c-16.1-5.7-36.8-12.2-52.8-18.3l0.9-39.8c-1.7-0.2-5.4-0.8-7.1-1.2l-2.6-5.3
				c-0.4,40-1.7,82.7-2.2,122.7c-1.1,23.3-1.9,48.2-2.6,71.6c-119.3-1.2-240.5-0.6-359.8-2.7l18,15.7c-0.1,28.5-0.9,61.2-1.2,89.7
				c-22.1,0.1-62.8-0.5-84.5-0.4c-7.7,1.3-40.1,2-48.4,2.3L1224.4,2907.5z"/>
			<path class="st9" d="M1519.2,925.5c0.7-112.1,1.3-224.6,1.3-336.7c-71.5,0.4-144.5,3-216,1c1.1-6.3-9.8-28.3-11.6-34.4
				c-2.3-5.9-5.1-16.5-9.4-21.3l-1.2-0.4l-1.6,0.9c-0.7-2-2.4-6.6-3.7-8.2c-1.5-2.8-38.7-32.3-42.1-35.2c4.1-5,12.5-15.3,16.7-20.5
				l-8.5-7c-0.9-1.3-2.7-4.1-3.8-5.2c-3.1-3.2-7.5-5.5-11.7-6.7c-4.9-0.7-10.8-0.6-15.1-3.3c-3.4-2.3-7.2-6-11.2-7.3
				c-5.8-2.2-23.1-1.1-29.4-1.6c-21.2-0.3-44-1-65.2-1.4c0.1-12.9,1.7-31.7-2-44c4.6-1.6,10.3-4,15-5.3c2.8-0.5,6.5-1.5,9.3-2.1
				c4.4-0.7,10.8-1.1,15.2-0.8c0.6-32.5,2.1-74.8,1.7-107.2c-20.4-1.1-54.7-2.5-75.2-2.2l0.1-8.7v-0.7c13,0.3,53.3,1.2,65.6,1.3
				l0.7-51.1c99.4,3,201.9,5.7,301.2,9.3l5.1,12.4l2.9-3.4c1-0.6,2.9-1.7,3.9-2.1c9.4-5.1,27.1-14.3,36.6-19.4
				c34.1-17.6,71.1-38.2,105.2-56.2l1.5,48.5l15.4,2c0.4,12.1,1.2,36.6,1.6,48.6l50-1l6.8,3.8c-0.1,11,0,26.7-0.2,37.7
				c-6.9-0.6-62.9-1.9-71.3-2.2l-1.6,48.6l-23.8,2.1l-0.9,14.1c-3,1.6-4.9,5.2-6,8.3c-1.1,0.3,0.2,22.9,0.1,24
				c-3.1,2.9-6,7.3-10.4,8.3c47.3,0.4,151.3,2.4,197.6,4.6c-0.8,3.1-2.4,9.2-3,12.2c0,0-0.1,28.4-0.1,28.4
				c-0.4,10.1-1.1,30.6-1.4,40.6c-0.3,2.6-0.4,20.6-0.4,23.6c0,0-3.9,23.9-3.9,23.9c0.9,23.4-2,74-4.1,97.6l0.8,1.1
				c0.3,56.3-0.2,114.2,0.5,170.5l-8.7,2.6c2.3,36.8,5.2,99.7,5.6,137.2c-72.1,1.2-144.9,1.1-217,2.1L1519.2,925.5z"/>
			<path class="st10" d="M1226.6,2892.4c8.5-0.3,40.6-1,48.4-2.3c21.6-0.1,62.5,0.6,84.5,0.4c0.4-28.5,1-61.2,1.2-89.7l-18-15.7
				c119.3,2.1,240.5,1.6,359.8,2.7c2.3-64.3,4-129.9,4.8-194.2l2.6,5.2c1.7,0.4,5.4,1,7.1,1.2l-0.9,39.8c16,6,36.7,12.7,52.8,18.3
				l22.6-56.1c-4.1-1.4-9.9-3.4-13.7-5.7c-0.9-0.1-5.4-4.9-6.1-5.5c0,0-2.7-5.2-2.7-5.2c-0.2-1.9-1.2-5.6-1.9-7.3
				c-1-2-2.8-5.3-3.9-7.2c-4.9-5.3-11.7-9.8-18-13.2l20.5-45c-11.2-5.6-23.6-11.8-34.7-17.4l-21.3,19.1
				c3.6-122.6,6.4-249.4,9.4-372.1c0.6-21-1.3-47.7-0.3-68.7l7.8-3.6c0-23.4,0.7-55.8,0.9-79.2l-5.5-0.4
				c0.4-31.2,1.9-69.5,2.7-100.5c0,0,0-3.1,0-3.1s0.1-16.8,0.1-16.8c0.1-1.2,1.5-10.4,1.4-11.2c-0.2-22.6,0.4-71.5,1.7-93.1
				c0.1-0.5,0.2-46,0.3-46.5c0.2-2.5,1.6-8.1,1.3-10.6c-0.1-1.3-1.3-12.5-1.4-13.3c0.9-18.2,2.5-62.9,3.2-81.7
				c0.1-66.1,1.1-154.3,2.7-220c1.7-59.4,0.4-126,2.8-185.6c-1.5-19.3-0.9-59.1,0.3-78.7c0.6-49.7-1.8-114-1.3-163.7
				c1-46.7-2.7-113.3-5.3-159.8l8.7-2.6c-0.8-56.3-0.2-114.2-0.5-170.5l-0.8-1.1c2.1-23.9,5.1-74,4.1-97.6c0,0,4-23.9,4-23.9
				c0-3.1,0.1-21,0.3-23.7c0.3-9.9,1.1-30.5,1.4-40.5c0,0,0.1-28.4,0.1-28.4c0.7-3,2.3-9.2,3-12.2c-46-2.2-150.6-4.3-197.5-4.6
				c4.3-1.1,7.3-5.3,10.4-8.3c0.1-1.2-1.2-23.7-0.2-24c1-3.1,3.1-6.6,6-8.3l0.9-14.2l23.9-2l1.6-48.6c8.7,0.3,64.1,1.5,71.3,2.2
				c0.1-11,0.1-26.7,0.2-37.7l-6.8-3.8l-50,1c-0.4-11.9-1.2-36.5-1.5-48.5l-15.4-2L1592,158c-34.1,18.1-71.1,38.5-105.1,56.2
				c-9.5,5-27.2,14.4-36.6,19.4c-1,0.5-3,1.6-4,2.1c0,0-2.8,3.4-2.8,3.4l-5.2-12.3c-163.5-6-328.4-9.9-491.9-13.7
				c-84.6-2-175.1-0.8-259.6-3l-0.4,0.7c-104.1,0.3-209.1,1-313.2,1.3c0,0-25.9-50.7-25.9-50.7l-2.6-4.1
				c-0.5-0.5-15.3-17.3-15.2-17.4l0.2-2.1c-15.5-18.2-32.3-38.4-47.8-56.6c-8.3-8.2-21.3-21.7-29.6-29.9
				c-66,66.2-133,132.7-199.4,198.5l-0.2,1.5c-1.4,1.3-3.8,3.4-5.3,4.6l-0.3,1.9c3,3.2,11.8,13.6,14.2,17.1
				c3.7,6.2,8,17.6,10.9,24.2c6.9,13.7,12.2,29.8,15.5,44.8c2.9,14.1,3.7,30.5,3.1,44.9l-4.2,1.9c-0.1,0.4-0.5,1.5-0.2,2l0.3,0.3
				l1.3,0.1l4.3,76l-1.3-0.2l-0.2,3.2l-2.6,0l-0.3-3l-1.5,0.1l0.3,16.3l10-0.4c0.1,0.7,0.3,2.4,0.4,3l-9.5,1.8l-0.9,21.4
				c0.6,0.1,3,0.7,3.6,0.6c0.5-0.5,2.7-0.7,3.4-0.8c1.6-0.2,4.9-0.5,6.5-0.4c2.1,0.5,5.8,1,6.3,3.6L95,522.9
				c0,0.3-1.8,19.2-1.9,20.3l-6.8-0.6l0.4,28.5c0.3,0.4,8.3,30.8,9,31c-0.2,0.7,0.6,2.4,0.9,3c0.8,0.6,2.4,2.5,3.5,2.2
				c0.5-0.9,0.8-2.5,0.6-3.6l-0.5-0.5c3.3-1.5,15.7-9.5,19.4-10.1l0.3,0.2l15.4,41.1c-1.3,0.2-20.2,8.1-21.3,6.9
				c-0.5-0.3-1.2-1.5-1.4-2c-0.7-3.5-10.9-25.2-12.2-28.5l-0.7-0.3c-0.3,0.1-0.9,0.5-1.1,0.8l-0.3,2l1.2,4.1
				c0.7,2.3,2.7,6.5,3.9,8.6c0,0,9.3,19.3,9.3,19.3l0.6,0.1l9.2-1.9c0.7-0.2,1.5-0.1,2,0.6c0,0.3,0.3,1.6,0.1,1.8
				c-1,0.4-6.2,1.8-7.3,2.2c-1.2,0.4-2.4,1.7-1.9,3c5.3,8.7,18.9,31.1,25.8,38.3c1,1.2,8.9,6.9,10.4,7.3c1.6-0.7,10.3-3.7,12.1-4.3
				l0.6,3.1l-11.4,3.2l1,3.1l9-1.8l1.7,1.4l1.3,4.6l2.8-0.8l1.8,2.1l0.6,2.2l-6.8,1.8l0.8,2.9c1.8-0.4,5.8-1.4,7.6-1.8l-5.4,5.3
				l2.6,3.3l3.7-2.7l8,8.7l-6.7,6.4L174,734c7.7,7.7,31.6,31.6,38.9,38.8l2.4-2.3l-3.6-5l0-1.2c0.3-0.3,1.1-1.2,1.6-1.2
				c0.5,0.2,3,3.3,3.4,3.7c0.7,0.6,2.4,1.9,3,2.5c0.5,0.4,0.8,1.4,0.9,2c0,0,1.1,2.7,1.1,2.7c1.1,1.9,4.9,5.1,6.7,6.4
				c1.2,1.7,3.5,5.3,4.5,7.1l1.9,1c1.1,2.2,3.3,6.9,4.2,9.1c0.8,3.7,1.9,9.2,2.8,12.9c1,3.4,2.4,12.1,3.3,15.6
				c0.7,7.4,0.9,22,0.9,29.6c0,1.2,0.1,14.9-0.1,15.7c-0.5,0.8-1.3,1.8-2,2.3c0.4,13.6,0.6,35.6-1.4,49c-2.4,11.2-5.8,27.1-8.2,38.2
				l-1.5,1.4c-5.5,28.6-15.4,60.8-22.6,89c-1.5,5.8-3.3,18.1-3.9,24c-0.5,3.9-0.7,11.8-2,15.5c0.2,0.3,0.3,0.9,0.2,1.3l-0.3,0.4
				l0.3,0.4c-0.9,58,3.7,120.6-0.3,178.5c-1.7,19-3.8,45.9-4.1,64.9c-0.5,7.5,1.9,16,4.8,22.8l-3.6,2.7c-0.7-0.6-3.3-5.1-4.5-4.5
				c-0.4,0.5,0,7.9,0,8.7c-0.1,1.7-0.3,5.7,0,7.3c1.6,3.5,1,9,1,12.8c0.3,2.7,1.1,6.4,1.3,9.2c-0.4,4.2-1.5,15.3-2.3,19.4l-6,2.2
				l5.2,54.1l4.6,1.8c0.9,2.1,16.1,41,17.2,43.2c0,0,2.6,3.7,2.6,3.7s4.2,3.5,4.2,3.5c19.1,18.4,46.1,44.6,65.6,62.6
				c13.4,14.3,40,45.7,52.9,60.3l24.5,4.7l6.6,8.1l-5.1,4.6l4.1,3.9l4.4-4.1l6.9,8.6c-0.6,0.9-6.9,8-6.7,9l-4.5,2.5
				c5.9,7.1,26.8,32.3,32.3,38.9l5.7,0.1l2.5,2.5l-12.2,14.5l0.2,3c0.8,0.9,2.6,2.7,3.4,3.6l4.3-0.6l12.6-14.3l9.3,7.7
				c-1.7,2-9.3,11-10.8,12.8l-0.4,2.9c0.8,0.8,2.5,2.4,3.3,3.2l3,0.1l8.1-7.1l7.4,2.3l9.7-3.3l1.5,3.1c-0.4,0.2-7.5,4.2-7.7,4.1
				c-1.1,1.1-2.4,3.2-2.4,4.9c0.5,4.5,3.4,12.1,4.9,16.2c0.6,1.7,2.1,3.5,3.5,4.6c0.6,0.5,2.1,0.8,2.9,0.9c3.8,0.6,6.8-0.7,10-2.6
				l2.3,4.4l-17.5,8.9l1.3,0.5c1.9,6.9,5.8,8.1,12.4,7.1c0.1,0.2,1.2,4.3,1.3,4.7c-1.9,1.1-9.8,5.5-11.9,6.6c0,0-6.9,2.1-6.9,2.1
				l0.6,2.8c-0.2,0-3.9,0.6-4,0.6l-1.1-2.9c-11.5-1.1-18-6.8-25.9-14.5c-5.2-5.6-11.7-13.6-15.2-20.5c-8.6-20.6-17.8-43.2-19.4-65.7
				l-13.2-7l-6.3,11.2l5.9,0.1c16.8,32.8,29.5,76.7,42,111.3c0.9,0.2,19.5,4.9,19.8,5l0.1,1.7l63.3,3l3.9,0.4
				c3.6,1.7,9.9,5.2,13,7.8c3.3,2.9,8.1,6.3,10.7,9.9c9.3,15.8,21.6,42,31.5,57.3c-0.7,3.6-3.3,14.3-4.2,18
				c-1.1-1.6-4.9-7.1-6.1-8.5c-1.7-1.8-4.4-2.3-6.7-1.7c-0.9,0.6-2.6,2.1-3.2,2.9c-1.3,3.6,4.5,10.2,6,13c2.1,4.5,4.9,10,7.3,14.4
				c-0.8,4-3.2,15.3-3.8,19.1c-3.6-6.4-9.1-14.7-13.6-20.5c-3.2-5.6-8.4-15.1-11.2-20.8c-2.7-5.6-10.3-17.4-13.8-22.7
				c-3.3-5.5-6.3-13.7-9.6-19.2c-0.3-0.4-1.2-1.6-1.5-2c-0.4-0.8-0.9-2.7-1-3.6c-0.7-1.4-2-4.5-2.5-6c-1.7-2.5-5-6-6.8-8.6
				c-0.8-1-2.2-2.8-3.6-3.1l-8,5.8l-2.2-2.7l6-5l-5.1-5.1c-21.3-2.4-65.7-7.3-86.8-9.7l-12.4,8.5c1.2,3.1,5.6,14.2,7,17.6l11.9-6.3
				l1.1-5.9l17.4,1.5l-0.6,5.7l-5.1,0.1l-28.8,19c0.5,1,1.8,2.1,2.3,3.2c1.3,0.8,4,2.6,5.2,3.5c1.9,0.6,4.2,2.3,6.1,2.9
				c0.7,0.4,2.5,2.3,3.1,2.9c5.6,9.5,14.2,23.7,19.9,33.2c6.6,6.7,31,48.3,36.4,56.9c1.5,1.9,23.2-13.8,24.7-14.4
				c1.5,6.2,6.7,14.3,4.9,20.7c-1.2,1-6.2,2.8-7.8,3.4c0,0-4.5,0.8-4.5,0.8l-4.8,2.1c-3.9,3.8-2.8,7.7,0.1,11.7l3.5-1.4l43.4-16.7
				l5.3,2.9l4-1.8l6.5,10.6l-53.6,23.8c1.2,2.2,4,7.6,5.2,9.7l54.8-23.1l11,17.5l-51.8,23.4c0.3,0.8,0.8,2.5,1,3.4l1.3,0.1
				c1.9,1.7,3.8,5.8,4.9,8.1c0,0,3.5,4.9,3.5,4.9c2.3,2.6,7,7.2,9.6,9.5c0,0,7.3,9.5,7.3,9.5c4.7,5.7,15.1,25.7,18.6,32.5
				c3.3,3.7,10.2,15.2,12.9,19.6c6.5,9.7,14.6,23.7,16.1,35.4c0.4,2.5,3,7.5,4.3,9.7c0,0,6.4,15.1,6.4,15.1
				c3.6,9.2,10,10.7,18.2,5.4c0,0,6.6-3.2,6.6-3.2s6.2-4.6,6.2-4.6c-0.1-1.2-0.9-2.6-1-3.8c0.5-4.1,1.8-9.8,4.9-12.7l0.9,0.2
				c0.8,0.1,2.8,6.5,3.1,7.2c0.9,1.6,3.5,4.8,4.7,6.2l3,0.2l1.5,4.5l-1.8,1.4c0.5,2.3,4,4,5.7,5.2c-1.6,1.4-6.1,4.6-7.9,5.9
				c0,0-6.1,1.7-6.1,1.7s-5,2.6-5,2.6c-4.3,1.7-14,6.5-18.2,8.5c-0.8,0.5-2,1.3-2.4,2.3c-0.9,2.2-0.2,5.3,0.3,7.6
				c0,0,3.6,7.8,3.6,7.8c2.8,27,34.3,79.1,45.7,103.6l48.4-19.2l4.3,9.5l-2.7,4.7c-3.9,3.6-37.7,14.6-43.2,16.8
				c2.1,4.7,5.6,12.5,7.8,17.3l80.4-29.2c0.5,0.8,1.6,2.8,1.9,3.6c1.2,0.2,4.2,0.6,5.4,0c1.8,0.1,6.1,6.4,7.1,7.5
				c0,0,1.4,4.3,1.4,4.3l-0.5,3.3l-0.5,4.3c0.9,2.8,2.9,8.5,3.9,11.2c-0.1,0.5-0.5,1.5-0.7,2c0,0,0.1,1.3,0.1,1.3l2.6,1.2l3.4,9.9
				c1.3,1.1,5.1,4.6,6.1,5.9c2.8,0.2,6.7,3.6,8.8,5.1c0,0,1,1.9,1,1.9c2.4,6,18.3,47.8,21.4,52.2c0,0,0.7,2.2,0.7,2.2
				s-0.1,1.6-0.1,1.6s-0.7,1.9-0.7,1.9s-1.4,1.2-1.4,1.2l-43.8,15.4c-0.5,0-2.1,0.4-2.7,0.3l-1.5-2.1l-34.1-68.9l11.3-11
				c0.5,0,1.5-0.2,2-0.4l0.7-1c0.1-1.6-0.8-2.6-2-3.5l-1.1,0.1l-15.9,15.3l64.9,129.1l44-16.7c5.5,18.8,13.1,45.9,18.5,64.6
				c0,0,0.8,5.8,0.8,5.8c-0.4,4.5-2.4,10.3-5.1,13.9c-1.6,1.3-4.4,4.4-5.6,6c0,0-3.3,1.7-3.3,1.7s-38.4,15.5-38.4,15.5l1.3,3.5
				c1.7-0.5,8-2.3,9.8-2.8l2.6,4.7l56.1-19.9l8.7,30.2c-3.6,3-9.3,4.2-13.4,6.3c0,0-4.4,1.6-4.4,1.6c-1.9,0.1-5.5,0.8-7.3,1.4
				c-1.7,0-5-0.4-6.7-0.8c0,0-3.5,0.3-3.5,0.3c-2.3,1-5.4,2.6-7.8,3.5c-1.3,1.4-3.5,3.1-5.2,4c-1.8,3,0,7.9,0.8,11
				c0.1,5.3,1.5,12.3,3.5,17.2c0.6,2.7,1.6,8.3,2,11.1c0,0,3.2,11.4,3.2,11.4c-0.7,2.4-2.3,6.4-2.6,8.9c0,1.3,0.5,4.1,0.8,5.4
				c0.3,2.4,0.5,8.1,0.5,10.6l1.3,1c0.9,0.4,6.9-0.7,7.9-0.9c3.4,0.7,10.9,1.9,14.3,2.4c0,0,9.5,0.3,9.5,0.3c2-0.1,7.9-0.6,9.7,0.2
				c2.3,1.2,7.2,2.6,9.8,3c0,0,14.8-1.6,14.8-1.6c8.8-2.7,19-6.4,27.7-9.7l2.6,6.3c-3.4,1.3-6.1,2.1-6.3,6.3
				c-3.3,1.3-17.5,6.6-21.1,8c0,0-65,5-65,5l-0.5-2.1l-3.9-0.3l3.2,13.7c29.7,0.1,79.1,0.4,108.7,0.7c18.8,0.7,51.4,1.6,70.1,0.2
				c12.6-1,41.9,0.5,54.9,0.8c9.5,0.7,65.1,6.1,73.5,5.1c9.4,0.4,21.8,0.2,31.2,0.5c3.3,0.6,10.9,1.7,14.2,2
				c13.9,36.6,27.1,77.5,34.3,116c5.1,0.7,14.3,2,19.4,2.7L1226.6,2892.4z M922.3,2747.8l-3-1.4c-1.4,0.1-4,1-5.2,1.6l-2.6-6.3
				l109.4-40.4l3.1,8.9l-101,38.4L922.3,2747.8z M826.7,2320.1c-5.3-0.9-12.4-3-17.3-5.3c-2.5-1.8-7.1-6.5-9.1-8.9
				c-2.6-3.6-7.5-8.6-6.4-13.4l1-0.8l-11.2-53l-1.3-0.2c-3.9-3.6-6.3-10.5-3.4-15.4c8.9-20,20.1-50.1,25.9-71.2l-17.6-4.8l-19,5.2
				l-46.5,34.7c-4.3-0.3-11.3-0.7-15.5-1c0,0-16.1-9.6-16.1-9.6l-4.7-10.3l0.3-49.4l-2.8-4.7c0-1.7,0-16.7-0.1-18.8
				c-0.3-0.7-7.4-23.7-7.6-23.4c-1.3-0.9-2.5-0.4-3.6,0.5c-2.2-1.6-4.3-16-5-18.5l-4.5-2.5l-1.3-5.5l4.4-3.8
				c-3-6.5-7.5-15.7-10.9-22c-2.4-3.4-12.4-18.8-15.6-21.1c-2.9-0.8-6.7-1.5-9.3-3.2l-1.1-1.7l2.1-0.9c-1-2.1-3-6.3-4.1-8.4
				c-5.8-6.6-46.8-27.1-55-31.7c0,0-10.6-4.9-10.6-4.9c-1.5-1.4-8-7.8-9.7-8.7c-1-0.4-2.5-1.3-3.1-2.2c0.6-5.4,3.2-13.2,3.8-18.6
				c0.7,1.2,5.2,8.6,6,10c0,0,1.6,2.5,1.6,2.5l2.5,1.8c16,11.7,48.2,31.1,66.3,39c0,0,3.5,0.5,3.5,0.5l0.1,3.1
				c5.9,5.3,15.9,13.9,22,19.2c12.3,22.7,31.9,69.8,38.8,94.7c1.6-0.4,9.9-2.3,11.7-2.7l1.1,1.7c-2.8,1.8-8.5,5.5-11.3,7.4
				c0.8,17.2,1.7,46.4,3.2,63.6c1.5,1.7,10.8,12.3,12.5,14.3c2,0,13.9-0.3,16.2-0.3l36.1-30.7l15.5-5.3c0,0,12-1.4,12-1.4
				c4.8,0.3,14.5,1.5,19.1,2.5c3.3-0.1,11,1,13.8-1.4l2.3,0.5l1.1,69.1l-4,0l-0.3-22.9l-2.7-1.2c-3.6,2.1-7.8,7.5-10.3,10.7
				c-3.7,7.1-6.2,16.3-7.5,24.2c-3.7,15.4-2.3,32.7,3,47.6c0,0,3.6,14.6,3.6,14.6l0.5,5.5c0.3,1.9,1.8,5.3,2.8,7
				c1.5,2.1,6.3,5.3,8.5,6.6c1.8,1,6.5,3.9,8.4,4.5c0.3,0.2,4.1-0.2,4.3,0c6.1,0.3,12.8-4.8,17.8-7.8c3.9-1.9,11.7-5.8,15.6-7.8
				c3.4-1.6,10.5-4,14.2-4.7c6.7-1,17-2.1,23.3-4.6c3.9-4.3,4.6-10.9,3.2-16.3c-1.2-4.3-6.6-6.6-10.1-8.7
				c-12.7-8.4-18.7-25.5-24.5-38.8c0,0-3.3-11.3-3.3-11.3l-0.3-8.1c0.5-5.9,2.6-13.8,3-19.7c0,0-0.7-3.1-0.7-3.1l0.9-4.6
				c1.1-1.5,3.4-4.9,4.9-5.9c5.6-2.3,13.8-4.6,19.9-5.2c9.2-2.4,21.5-3.6,30.6-6.3c8.6-3.5,19.2-7.4,28.4-4c0,0,3.4,1.2,3.4,1.2
				s3,2.4,3,2.4c0.4,0.3,1.5,2.9,1.8,3.2l-1.7,2.9l3.5,3.1l1.6-2.4l2.4,0.7l2.6-0.4l11.4,7.4c2,4.3,6.4,13.2,8.4,17.2
				c1.3,6.6,2.1,15.2,4.7,21.4c1.4,3.4,4.3,10.2,5.8,13.5c0,0,8.1,10.9,8.1,10.9c2.7,5.3,8.5,15.9,11.5,21.1
				c3.9,6.3,11.1,22.3,20.5,17.7c0,0,2.9-2.3,2.9-2.3l2.8-4.3c0.9-1.8,0-8.9-0.1-10.9c0,0-0.7-8.1-0.7-8.1
				c-0.6-2.9-3.1-9.3-4.2-12.1c0,0-8.3-13.7-8.3-13.7c-0.5-1.6-1.9-4.6-2.7-6.1c0-3.5,2.7-8.4,3.9-11.6c2.1-3.2,5.1-8.6,8.2-10.7
				c8.2-5.1,28.7-24.4,36.5-30.7c6.1-5.1,15.7-14.3,22.5-18.5c5.9-2.2,13.7,0.1,19.4,2c36,16.6,81.9,43.7,116.4,63.6
				c5.3,2.5,12.8,7.7,18.9,6.4c2.1-0.3,5.8-2.7,7.6-3.9c0,0,14.9-6.9,14.9-6.9c3.1-1.2,14.1-5,16.9-6.9c0,0,9.1-6.6,9.1-6.6
				c10-4,28.3-10.2,37.8-15.3l5.3,10.8c-15.2,6.4-32.6,16.7-47,24.6c0,0-5.8,2.1-5.8,2.1l-5,3.5c-6,5.1-14.9,9.7-22.3,12.3
				c-6,3-12.9,2.3-19.1,0.2c-7.3-2-18-9.6-24.3-13.9c-11.3-8.1-28.6-18-41-24.5c-10.2-5.9-35.3-20.5-46-24.6
				c-10-5-22.6-9.3-33.9-7.8c-2.1,0.5-5.7,2.5-7.3,3.8c-3.5,3.4-11.8,10.4-15.6,13.4c-6.6,4.7-16.2,11-22.3,16.4
				c-1.1,1.3-4.3,4.2-5.1,5.8c-0.3,0.7-1.5,2.8-1.9,3.5c-0.6,1.4-3.2,6.3-3.6,7.7c0,0,0.1,4.3,0.1,4.3c1,7.1,3.1,12.6,7.3,18.5
				c1.4,2.1,3.6,6.7,4.5,9.1c0,1.7,10.2,59.6,9.6,59.5c-2.1,2.3-5.9,2.3-8.8,2.3c0,0-33-14.3-33-14.3s-8.9-6.9-8.9-6.9
				c-15.5-16.5-26.2-42-37.6-61.3c-4.5-9.5-13.6-29.2-19.4-37.8c-2.1-2.4-6.1-4.4-9.1-5.4c-2.7-0.8-8.3-1.8-11.1-2
				c0,0-11.7,0.6-11.7,0.6c-3.3,0.6-7.6,2.2-10.8,3.2c-0.8-0.2-2.5-0.6-3.3-0.8c-1.2,0-3.5-0.5-4.6-0.9c-3.5,0.1-10,1.2-13.3,2.3
				c-2.6,2.4-7.1,5.9-8.9,8.9c-2.7,4.2-5.6,11.1-7.1,15.8l17.5,37.3l20.1,10.2l3.2,2.4l6.5,2.7c6.1,1.1,13.1,5.3,17.3,9.7
				c1.6,1.2,6.4,4.4,7,6.5c0.8,3.6,0.3,8.2-1.9,11.3c0,0-21.3,14.6-21.3,14.6c-3.2,2-15.1,1.4-18.1,3.6c-6.6-1.4-26.2,0.9-33.1,1.7
				c0,0-32.2,16.8-32.2,16.8C840.4,2317,836.2,2321.3,826.7,2320.1z M1553.4,2157.9c-9.7-3.1-19.4-11.7-27.3-17.8
				c0.1,0-8.3-6.2-8.6-6.4c-0.8-0.9-6.7-8-7.4-8.7c0,0-10.6-2.8-10.6-2.8c-2.9-1.3-8.7-4-11.6-5.3c-1.9-1.9-6.3-6.4-8.1-8.2
				c0,0-0.7-2.3-0.7-2.3l-3.8-4.1l-2.3-0.3c-0.1-0.1-2.8-2.9-3-3.1c-2.5,1.9-4.5,2.1-7.3,0.7c-2.9-2-15.2-10.3-18.4-12.4
				c-2.8-1.5-7.4-5.4-10.9-4c-1.6,1.2-3.9,3.1-5,4.8c-0.4,0.7,0.6,2.8,0.8,3.5c0,0,0.6,2.2,0.6,2.2c-0.3,0.9-1.6,3-2.2,3.8
				c-0.3,4.3-0.9,10.4-1.1,14.7c-1.4,6-3.1,15.1-4.1,21.2c-6.9,9.7-4.8,8.1-15.7,12.9l-4.2-7.5c1.8-0.6,5-1.1,6.9-1
				c4.5-3.3,4.1-5.5,4.7-10.6c0.1-3.3-0.7-10.3-1.2-13.6c0,0,0.7-7.5,0.7-7.5l1.4-5.4l3.7-5.5l2-5.3l0.1-5.3l1.8-3.4
				c3-3.6,7.5-7.1,12.2-7.8c1.8,0.9,9.9,2.3,12.1,2.7c0,0,7.1,3.3,7.1,3.3c3.1,2.2,7.4,5.7,10,8.4c0,0,6.6,2.3,6.6,2.3
				c2,0.3,6.7,0.9,8.6,1c9.3,0.7,17.7,10.5,24.5,16c4.5,2.9,11,7.7,16,9.5l0.3,0.5c3.6,2.5,8.3,8.9,10.9,12.5
				c2.7,3,7.2,7.7,9.8,10.8c1.8,2.3,3.8,6.5,6.8,7.4c4.6,0.6,8,1.4,12.4-0.9c2.5-2.3,6.5-4.9,9.2-7.1c2.4-5.3,3.7-6.5,8.8-9.2
				c10.8-2.2,27-6.3,37.8-7.7c7.6-0.9,21.7-2,29.4-2.7c13.8-1.4,29-3.3,42.8-2.8l-0.1,7.2c-5.9,0.3-15.7-0.9-21.7-0.9
				c-8.4-0.1-20.7,1.2-28.8,2.7c-1.3,0.1-3.8,0-5.1-0.2c-1.3,0.1-5.2,1.3-6.5,1.8c0,0-4.7,0.8-4.7,0.8c-1.7,0.8-4.8,2.4-6.6,2.6
				c-1.2,0.1-3.7,0.2-4.9,0.2c-2,0.5-8.5,2-10.4,2.5c-8.5,1.4-18.1,2-24.9,8.1C1568.6,2148.8,1563.5,2160.4,1553.4,2157.9z
				 M190,1136.6l0.8-0.8c0.3-17.4,0.7-43.9,1-61.1l-1.9-0.2c0.2-2-1.6-41.7-0.1-42.5c0,0,0.6-2.7,0.6-2.7l8.3-31.6
				c0,0,8.4-10.5,8.4-10.5s0.1-0.7,0.1-0.7c-0.7-0.8-1.3-2-1-3.1c0.7-2.9,3.6-13.4,4.4-16.5c0,0,6-23,6-23s0.5-1.3,0.5-1.3
				c0.2-0.7-0.7-2.9-1-3.5c0,0-0.9-3.8-0.9-3.8c-0.2-1-0.2-2.2-0.2-3.2c0.6-0.4,4.9-19.4,5.2-20.6c0.2-9.3-7-106-8-115.4
				c0,0-0.7-2.9-0.7-2.9s-0.6-1.3-0.6-1.3c-0.5-0.9-1.6-2.6-2.1-3.5c-4.2-5.5-10.7-14.2-14.3-20.1c-3.2-7.1-29.8-28.4-31.8-36.1
				c-1.2,0.1-2.8,0.2-4,0.2c-0.4-0.5-0.9-1.9-1.1-2.6c-1.1-2.3-3.7-4.4-5.8-5.7c-1-0.6-2.3-2.2-2.9-3.2c-2.1-2.8-6.1-6.7-8.7-9
				c-4.7-3.3-8.7-9.5-13.2-13c-0.7-0.1-2-0.3-2.7-0.4c-0.9-0.3-1.9-1.8-2.3-2.6c-0.2-0.2-1,0-1.2,0.1c-0.8,1.4-0.1,4,0.1,5.4
				c-0.2,1.8-0.5,4.1-1.9,5.4c-3.1,2-6.8,4.3-7.9,8.1c-0.7,0.5-1.6-0.2-2.2-0.6c-0.9-0.2-2.3-1.3-3-1.9c-0.6,0.1-1.7,0.4-2.2,0.5
				c1.1,4,5.8,21.6,7.3,24.6c3.1,5.4,6.6,14.4,8.5,20.3c6,22,10.7,48.5,16.9,70.4c0.7,2.5,2.9,10,3.2,12.4c0.5,2.6,1,11.2,1.1,14
				c2.7,22.1,16.3,68.2,19.5,90.4c1.8,13.3,1.3,28.4,2.2,41.8c2.7,16.1,6.7,37.9,9,54.1c1.7,8.1,2.7,19,3.6,27.3
				c1.4,2.4,3,5.5,3.8,8.2c0.3,1.9,0.6,5.5,0.7,7.4c1.1,3.2,2,8.2,2.6,11.5l-2.7,0.4l6.3,44l4.3,0.6L190,1136.6z"/>
		</g>
	</g>
</g>
</svg>
